<svg width="30" height="30" viewBox="0 0 30 30" fill="none" xmlns="http://www.w3.org/2000/svg">
<path d="M1.31622 0.0513131C0.792272 -0.123329 0.225955 0.159838 0.0513131 0.683783C-0.123329 1.20773 0.159838 1.77405 0.683783 1.94869L1.31622 0.0513131ZM1.40697 1.13565L1.7232 0.186968L1.72318 0.186963L1.40697 1.13565ZM5.02876 2.95425L4.21751 3.53895L4.21752 3.53897L5.02876 2.95425ZM27.1161 21.203C27.6684 21.203 28.1161 20.7553 28.1161 20.203C28.1161 19.6507 27.6684 19.203 27.1161 19.203V21.203ZM28.6178 6.64455L29.4526 6.09407L29.4526 6.09397L28.6178 6.64455ZM27.4353 12.033L28.3545 12.4269L28.3545 12.4269L27.4353 12.033ZM26.7769 13.5692L25.8578 13.1753L25.8577 13.1753L26.7769 13.5692ZM25.3288 15.9819L25.8793 16.8168L25.8794 16.8167L25.3288 15.9819ZM0.683783 1.94869L1.09075 2.08434L1.72318 0.186963L1.31622 0.0513131L0.683783 1.94869ZM1.09073 2.08433C2.12654 2.42961 2.82325 2.66343 3.33905 2.90339C3.83153 3.13249 4.06399 3.32595 4.21751 3.53895L5.84001 2.36955C5.41358 1.7779 4.84909 1.40004 4.18264 1.09001C3.53951 0.790818 2.71529 0.517672 1.7232 0.186968L1.09073 2.08433ZM4.21752 3.53897C4.37105 3.75197 4.48107 4.03368 4.54268 4.57334C4.60721 5.13855 4.60872 5.87345 4.60872 6.96528H6.60872C6.60872 5.91952 6.61023 5.05122 6.52977 4.34647C6.44639 3.61618 6.26643 2.96117 5.84 2.36953L4.21752 3.53897ZM4.60872 6.96528V10.9856H6.60872V6.96528H4.60872ZM4.60872 10.9856C4.60872 13.1298 4.6066 14.8387 4.78637 16.1758C4.97001 17.5417 5.35978 18.6685 6.25147 19.5602L7.6657 18.146C7.20753 17.6878 6.92236 17.0534 6.76854 15.9093C6.61085 14.7364 6.60872 13.1864 6.60872 10.9856H4.60872ZM6.25147 19.5602C7.14317 20.4519 8.26998 20.8417 9.63589 21.0254C10.973 21.2051 12.6819 21.203 14.8262 21.203V19.203C12.6253 19.203 11.0753 19.2009 9.9024 19.0432C8.75827 18.8894 8.12387 18.6042 7.6657 18.146L6.25147 19.5602ZM14.8262 21.203H27.1161V19.203H14.8262V21.203ZM9.44933 25.0436C10.1697 25.0436 10.7537 25.6276 10.7537 26.348H12.7537C12.7537 24.5231 11.2743 23.0436 9.44933 23.0436V25.0436ZM10.7537 26.348C10.7537 27.0683 10.1697 27.6523 9.44933 27.6523V29.6523C11.2743 29.6523 12.7537 28.1729 12.7537 26.348H10.7537ZM9.44933 27.6523C8.72896 27.6523 8.14497 27.0683 8.14497 26.348H6.14497C6.14497 28.1729 7.62437 29.6523 9.44933 29.6523V27.6523ZM8.14497 26.348C8.14497 25.6276 8.72896 25.0436 9.44933 25.0436V23.0436C7.62437 23.0436 6.14497 24.5231 6.14497 26.348H8.14497ZM23.2755 25.0438C23.9959 25.0438 24.5799 25.6277 24.5799 26.3481H26.5799C26.5799 24.523 25.1004 23.0438 23.2755 23.0438V25.0438ZM24.5799 26.3481C24.5799 27.0685 23.9958 27.6525 23.2755 27.6525V29.6525C25.1004 29.6525 26.5799 28.173 26.5799 26.3481H24.5799ZM23.2755 27.6525C22.5552 27.6525 21.9711 27.0685 21.9711 26.3481H19.9711C19.9711 28.173 21.4506 29.6525 23.2755 29.6525V27.6525ZM21.9711 26.3481C21.9711 25.6277 22.5551 25.0438 23.2755 25.0438V23.0438C21.4506 23.0438 19.9711 24.523 19.9711 26.3481H21.9711ZM5.60872 6.60872H23.1993V4.60872H5.60872V6.60872ZM23.1993 6.60872C24.8108 6.60872 25.9058 6.61135 26.6898 6.72742C27.4549 6.84069 27.6733 7.02882 27.783 7.19512L29.4526 6.09397C28.8791 5.22445 27.9668 4.89467 26.9827 4.74898C26.0174 4.60609 24.7447 4.60872 23.1993 4.60872V6.60872ZM27.7829 7.19503C27.8925 7.36123 27.9794 7.63604 27.7821 8.38396C27.5799 9.15031 27.151 10.1578 26.5162 11.6391L28.3545 12.4269C28.9632 11.0064 29.467 9.8376 29.7159 8.89414C29.9697 7.93224 30.026 6.9637 29.4526 6.09407L27.7829 7.19503ZM26.5162 11.639L25.8578 13.1753L27.696 13.9632L28.3545 12.4269L26.5162 11.639ZM25.8577 13.1753C25.559 13.8724 25.3648 14.3221 25.18 14.6505C25.0072 14.9577 24.8866 15.0756 24.7782 15.1471L25.8794 16.8167C26.3482 16.5075 26.6614 16.0964 26.9231 15.6311C27.173 15.187 27.4143 14.6206 27.696 13.9631L25.8577 13.1753ZM24.7784 15.147C24.6701 15.2184 24.5143 15.2828 24.1638 15.3206C23.7892 15.3611 23.2994 15.3624 22.5409 15.3624V17.3624C23.2562 17.3624 23.8718 17.3638 24.3784 17.3091C24.9092 17.2518 25.4104 17.1259 25.8793 16.8168L24.7784 15.147ZM22.5409 15.3624H5.60872V17.3624H22.5409V15.3624Z" fill="black"/>
</svg>
