<svg width="36" height="35" viewBox="0 0 36 35" fill="none" xmlns="http://www.w3.org/2000/svg">
<path fill-rule="evenodd" clip-rule="evenodd" d="M18.5306 3.66463C20.356 3.30498 22.2663 3.51657 23.9643 4.27826C28.8038 6.71155 29.5042 14.3711 23.1153 17.8835C23.1153 17.8835 22.4998 19.6185 21.8843 19.9782C21.2475 20.211 20.547 20.2956 19.8678 20.2321C19.0613 20.1898 18.2759 19.9994 17.5755 19.6397C17.151 18.9626 16.8538 18.2009 16.7264 17.3968C10.7833 12.8053 12.9695 5.06118 18.4882 3.68578H18.5306V3.66463Z" fill="#2A2941"/>
<path d="M18.4026 19.1741C18.4026 19.1741 19.0182 10.8586 18.8059 9.41984C18.6997 8.76391 16.8107 8.19258 17.1078 10.4778C17.4262 13.0169 22.3506 12.8053 23.4543 12.0859C24.1547 11.6415 22.7539 8.9332 22.0958 9.90648C21.4379 10.901 21.0345 19.2164 21.0345 19.2164" stroke="white" stroke-width="1.7205" stroke-miterlimit="1.22" stroke-linecap="square"/>
<path fill-rule="evenodd" clip-rule="evenodd" d="M20.6319 2.54321H20.3984C19.698 2.54321 18.9976 2.60667 18.2971 2.73366C12.1842 4.25703 9.55217 12.7418 15.8562 17.9258C15.9623 18.3913 16.1109 18.8567 16.2807 19.3011C16.4293 19.7031 16.6415 20.0629 16.9599 20.359C17.1722 20.5283 17.4057 20.6552 17.6603 20.7399C18.3608 20.9727 19.0824 21.1207 19.8041 21.1843C20.6957 21.2689 21.5871 21.1419 22.4149 20.8034C22.7545 20.5495 23.0305 20.2321 23.2426 19.8724C23.4762 19.4492 23.6884 19.026 23.8582 18.5605C30.6928 14.5403 29.7164 6.16137 24.3676 3.43189C23.4124 2.98755 22.3724 2.7125 21.3111 2.58551C21.0776 2.56436 20.823 2.56436 20.5895 2.58551L20.6319 2.54321ZM18.5306 3.66463C19.4433 3.49534 20.356 3.47419 21.2687 3.57995C22.2026 3.68578 23.1153 3.93968 23.9856 4.32057C28.825 6.75385 29.5254 14.4134 23.1366 17.9258C23.1366 17.9258 22.521 19.6608 21.9055 20.0205C21.2687 20.2532 20.5682 20.3379 19.889 20.2744C19.0824 20.2321 18.2971 20.0416 17.5967 19.682C17.1722 19.0049 16.875 18.2431 16.7476 17.4391C10.8045 12.8476 12.9907 5.1034 18.5094 3.72809V3.66463H18.5306Z" fill="#2A2941"/>
<path fill-rule="evenodd" clip-rule="evenodd" d="M16.7045 19.2588C18.7634 19.809 20.9284 19.9783 23.0509 19.7031C23.1783 21.2477 21.9684 23.7022 20.6949 23.9561C20.334 23.9772 19.952 23.9772 19.5912 23.9561C19.2515 23.9349 18.9332 23.8715 18.6148 23.7657C17.2564 23.2578 16.3012 20.9938 16.7045 19.2588Z" fill="#2A2941"/>
<path fill-rule="evenodd" clip-rule="evenodd" d="M17.0023 18.222L15.8561 17.9258L15.6014 19.0895C15.3467 20.4648 15.5802 21.8824 16.2594 23.1097C16.6839 23.9138 17.3632 24.5485 18.2122 24.9082C18.6155 25.0352 19.0187 25.1198 19.4432 25.1621C19.9102 25.2044 20.3984 25.2044 20.8653 25.1621C21.7568 24.9082 22.5209 24.3157 23.0091 23.5117C23.7732 22.3903 24.1765 21.0573 24.1553 19.7031L24.0492 18.4759L22.8181 18.624C20.8653 18.8568 18.8914 18.7298 17.0023 18.222ZM16.7051 19.3222C18.764 19.8723 20.929 20.0416 23.0516 19.7666C23.1789 21.3112 21.9691 23.7656 20.6955 24.0195C20.3347 24.0407 19.9526 24.0407 19.5918 24.0195C19.2522 23.9984 18.9338 23.9349 18.6155 23.8291C17.2995 23.2578 16.3443 20.9938 16.7264 19.2588V19.3222H16.7051Z" fill="#2A2941"/>
<path fill-rule="evenodd" clip-rule="evenodd" d="M29.3768 17.7353L13.9883 24.3158L18.0636 34.0701L33.4521 27.5955L29.3768 17.6719V17.7353Z" fill="#2A2941"/>
<path fill-rule="evenodd" clip-rule="evenodd" d="M14.4127 28.3782L13.9883 24.3368L29.4192 17.8411L31.8601 21.0572L14.4127 28.3782Z" fill="#2A2941"/>
<path fill-rule="evenodd" clip-rule="evenodd" d="M10.2737 20.7398L5.66771 22.898L4.9248 20.634L10.019 19.8723L10.2737 20.7398Z" fill="#2A2941"/>
<path fill-rule="evenodd" clip-rule="evenodd" d="M5.37032 23.6809L11.0163 21.0361L10.4432 19.2375L4.18164 20.1685L5.37032 23.6809ZM10.2734 20.7399L5.66745 22.898L4.92455 20.634L10.0187 19.8723L10.2734 20.7399Z" fill="#2A2941"/>
<path fill-rule="evenodd" clip-rule="evenodd" d="M12.5872 19.8723L11.8231 20.1897L11.5684 19.5549L12.4174 19.301L12.5872 19.8723Z" fill="#2A2941"/>
<path fill-rule="evenodd" clip-rule="evenodd" d="M11.484 20.9304L13.2457 20.1898L12.8211 18.5605L10.8047 19.153L11.484 20.9304ZM12.5664 19.8513L11.8023 20.1686L11.5476 19.5338L12.3966 19.2799L12.5664 19.8513Z" fill="#2A2941"/>
<path fill-rule="evenodd" clip-rule="evenodd" d="M8.66019 15.4289L1.69824 13.8843L2.80198 10.7104L9.14844 14.244L8.70266 15.4712L8.66019 15.4289Z" fill="#2A2941"/>
<path fill-rule="evenodd" clip-rule="evenodd" d="M0.913086 14.2863L9.02124 16.0848L9.80662 13.9689L2.48384 9.88525L0.913086 14.2863ZM8.66041 15.4289L1.69846 13.8843L2.8022 10.7105L9.14857 14.244L8.70288 15.4712L8.66041 15.4289Z" fill="#2A2941"/>
<path fill-rule="evenodd" clip-rule="evenodd" d="M11.9924 16.4445L10.8887 16.1484L11.1646 15.2385L12.3956 15.6829L12.056 16.4445H11.9924Z" fill="#2A2941"/>
<path fill-rule="evenodd" clip-rule="evenodd" d="M10.1465 16.5504L12.3115 17.1428L13.0544 15.3655L10.7621 14.4768L10.1465 16.5504ZM11.9931 16.4446L10.8682 16.1484L11.1441 15.2386L12.3115 15.6829L11.9931 16.4446Z" fill="#2A2941"/>
<path fill-rule="evenodd" clip-rule="evenodd" d="M19.952 1.14675C20.8435 0.977539 21.7562 0.935237 22.6477 1.01984C23.5816 1.1256 24.4943 1.37958 25.3645 1.76038C30.204 4.19366 30.9044 11.8533 24.5155 15.3656C24.5155 15.3656 23.9 17.0795 23.2845 17.4604C22.6477 17.6931 21.9472 17.7777 21.268 17.6931C20.4614 17.6719 19.6761 17.4604 18.9757 17.1006C18.5512 16.4235 18.254 15.6619 18.1266 14.8578C12.2472 10.2451 14.4334 2.501 19.952 1.14675Z" fill="white"/>
<path fill-rule="evenodd" clip-rule="evenodd" d="M19.655 10.0758C19.5489 12.9323 19.273 16.5927 19.273 16.5927V17.164L20.4191 17.2486V16.6774C20.4191 16.6774 20.6739 13.2708 20.8012 10.4143C21.3106 10.5201 21.82 10.5624 22.3506 10.5624C22.0747 13.2708 21.9262 16.6562 21.9262 16.6562V17.2275H23.0723V16.6774C23.0723 16.6774 23.221 13.2284 23.5181 10.5201H23.6454C24.1973 10.4567 24.7279 10.3085 25.2161 10.0335C25.3647 9.92764 25.4708 9.80073 25.5558 9.65259C25.6406 9.50445 25.6831 9.31409 25.6619 9.1448C25.6194 8.46772 25.3647 7.79063 24.9614 7.26161C24.8341 7.05001 24.6431 6.90196 24.4308 6.77497C24.2185 6.66921 23.985 6.60568 23.7304 6.62683C23.6029 6.64806 23.4756 6.71152 23.3695 6.77497C23.2633 6.85966 23.1785 6.94426 23.1148 7.05002C22.7752 7.83294 22.5841 8.65816 22.5204 9.4833C21.9686 9.4833 21.4168 9.41985 20.8861 9.29286C20.9498 8.48887 20.9498 7.66364 20.8861 6.85957C20.8437 6.66921 20.7587 6.47877 20.6314 6.33063C20.5041 6.18249 20.3554 6.05558 20.1645 5.97098C19.8673 5.82284 19.5489 5.75939 19.2305 5.82284C18.9122 5.88629 18.615 6.05558 18.4027 6.30948C18.2329 6.56337 18.1056 6.85966 18.0419 7.15585C17.9782 7.45205 17.9782 7.76948 18.0419 8.08683C18.1056 8.55232 18.3178 8.99666 18.615 9.35639C18.9122 9.71604 19.3154 9.99118 19.7399 10.1604L19.655 10.0758ZM23.9426 7.79063C23.9002 7.89639 23.8789 8.02338 23.8364 8.12913C23.7516 8.46772 23.6879 8.86975 23.6242 9.35639C23.9214 9.31409 24.2185 9.2294 24.5156 9.1025C24.5156 9.06011 24.5156 8.99666 24.5156 8.95436C24.4733 8.67931 24.3883 8.42542 24.2397 8.19259C24.1548 8.06568 24.07 7.93869 23.9638 7.83294L23.9426 7.79063ZM19.6762 6.98656C19.6338 6.94426 19.5914 6.90196 19.5489 6.88081C19.5064 6.85966 19.4428 6.83842 19.4003 6.83842C19.3366 6.83842 19.2942 6.85966 19.2518 6.88081C19.1881 6.94426 19.1668 7.02886 19.1456 7.0924C19.1031 7.32515 19.1031 7.57904 19.1456 7.83294C19.1668 8.02338 19.2305 8.21382 19.3366 8.38303C19.4428 8.55232 19.5914 8.67931 19.7612 8.78507C19.7399 8.19259 19.7187 7.60019 19.6762 6.98656Z" fill="#FFE468"/>
<path fill-rule="evenodd" clip-rule="evenodd" d="M22.0538 0.00396565H21.8203C21.1198 -0.0171853 20.4194 0.0462671 19.719 0.194408C13.606 1.69671 10.9741 10.2026 17.278 15.3865C17.3842 15.852 17.5327 16.3175 17.7025 16.7831C17.8511 17.185 18.0846 17.5448 18.3817 17.841C18.594 18.0102 18.8275 18.1372 19.0822 18.2218C19.7827 18.4757 20.5044 18.6239 21.226 18.6662C22.1175 18.7508 23.009 18.6239 23.8367 18.2853C24.1763 18.0314 24.4523 17.714 24.6645 17.3543C24.898 16.9311 25.1103 16.5079 25.2801 16.0424C32.1147 12.0223 31.1383 3.64328 25.7895 0.913793C24.8343 0.469454 23.7943 0.194408 22.733 0.0674182H22.0113L22.0538 0.00396565ZM19.9525 1.12539C20.844 0.956095 21.7567 0.913793 22.6481 0.998481C23.582 1.10424 24.4947 1.35813 25.365 1.73902C30.2044 4.1723 30.9049 11.8318 24.5159 15.3442C24.5159 15.3442 23.9004 17.0581 23.2849 17.4389C22.6481 17.6717 21.9477 17.7563 21.2684 17.6717C20.4619 17.6505 19.6765 17.4389 18.9761 17.0793C18.5515 16.4022 18.2544 15.6404 18.1271 14.8364C12.2688 10.2449 14.4338 2.5007 19.9525 1.12539Z" fill="#2A2941"/>
<path fill-rule="evenodd" clip-rule="evenodd" d="M18.1272 16.7197C20.1861 17.2911 22.3511 17.4392 24.4737 17.1641C24.601 18.7087 23.3912 21.1631 22.1176 21.417C21.7568 21.4594 21.3747 21.4594 21.0139 21.417C20.6743 21.3747 20.3559 21.3324 20.0376 21.2266C18.7216 20.7611 17.7664 18.4759 18.1484 16.7409V16.7197H18.1272Z" fill="#FFAA5B"/>
<path fill-rule="evenodd" clip-rule="evenodd" d="M18.4027 15.6194L17.2565 15.3232L17.0018 16.487C16.7471 17.8623 16.9806 19.28 17.6598 20.5072C18.0843 21.3112 18.7635 21.946 19.6125 22.3057C20.0158 22.4327 20.4191 22.4961 20.8436 22.5596C21.3318 22.6019 21.7988 22.6019 22.2869 22.5596C23.1784 22.3057 23.9425 21.7133 24.4095 20.9092C25.1736 19.7878 25.5769 18.4336 25.5557 17.0794L25.4496 15.8522L24.2185 16.0003C22.2869 16.2331 20.313 16.1061 18.4027 15.6194ZM18.1267 16.7197C20.1856 17.291 22.3506 17.4391 24.4732 17.164C24.6005 18.7087 23.3907 21.1631 22.1171 21.417C21.7563 21.4593 21.3742 21.4593 21.0134 21.417C20.6738 21.3958 20.3554 21.3324 20.0371 21.2265C18.721 20.7611 17.7659 18.4759 18.1479 16.7409V16.7197H18.1267Z" fill="#2A2941"/>
<path fill-rule="evenodd" clip-rule="evenodd" d="M30.7986 15.1963L15.4102 21.7767L19.4854 31.531L34.874 25.0563L30.7986 15.1963Z" fill="#FF7A00"/>
<path fill-rule="evenodd" clip-rule="evenodd" d="M35.9569 25.5219L31.2236 13.9902L14.2432 21.3324L18.9977 32.7159L35.9569 25.5219ZM30.2897 16.2966L33.6858 24.6121L19.9528 30.4096L16.5567 22.2211L30.3322 16.3389L30.2897 16.2966Z" fill="#2A2941"/>
<path fill-rule="evenodd" clip-rule="evenodd" d="M15.8135 25.8391L15.4102 21.7978L30.8411 15.302L33.282 18.5181L15.8135 25.8391Z" fill="#FFE468"/>
<path fill-rule="evenodd" clip-rule="evenodd" d="M14.2002 21.0572L14.8582 27.4895L35.0649 18.9414L31.2655 13.842L14.2002 21.0572ZM15.8133 25.8392L15.4101 21.7978L30.8411 15.302L33.282 18.5182L15.8133 25.8392Z" fill="#2A2941"/>
<path fill-rule="evenodd" clip-rule="evenodd" d="M11.6956 18.222L7.08959 20.3802L6.34668 18.1162L11.4408 17.3545L11.6956 18.222Z" fill="#FF7A00"/>
<path fill-rule="evenodd" clip-rule="evenodd" d="M6.75012 21.1419L12.3961 18.497L11.823 16.6985L5.56152 17.6295L6.79259 21.1207H6.75012V21.1419ZM11.6532 18.2008L7.04725 20.3589L6.30434 18.095L11.3985 17.3333L11.6532 18.2008Z" fill="#2A2941"/>
<path fill-rule="evenodd" clip-rule="evenodd" d="M14.0091 17.3334L13.245 17.6508L12.9902 16.9949L13.8393 16.741L14.0091 17.3334Z" fill="#FF7A00"/>
<path fill-rule="evenodd" clip-rule="evenodd" d="M12.9263 18.3912L14.6881 17.6506L14.2635 16.0425L12.2471 16.635L12.9263 18.3912ZM14.0088 17.3332L13.2447 17.6506L12.99 16.9947L13.839 16.7407L14.0088 17.3332Z" fill="#2A2941"/>
<path fill-rule="evenodd" clip-rule="evenodd" d="M10.0826 12.8899L3.07812 11.3241L4.18186 8.17139L10.5283 11.7049L10.0826 12.9322V12.8899Z" fill="#FF7A00"/>
<path fill-rule="evenodd" clip-rule="evenodd" d="M2.33496 11.7474L10.4644 13.5459L11.2497 11.43L3.90571 7.3252L2.33496 11.7474ZM10.0823 12.89L3.07786 11.3242L4.1816 8.17157L10.5281 11.705L10.0823 12.9323V12.89Z" fill="#2A2941"/>
<path fill-rule="evenodd" clip-rule="evenodd" d="M13.415 13.9054L12.29 13.6092L12.5659 12.6782L13.7334 13.1437L13.415 13.9054Z" fill="#FF7A00"/>
<path fill-rule="evenodd" clip-rule="evenodd" d="M11.5684 14.0114L13.7334 14.5826L14.4763 12.8264L12.1839 11.9377L11.5684 14.0114ZM13.415 13.9055L12.29 13.6093L12.566 12.6784L13.7334 13.1439L13.415 13.9055Z" fill="#2A2941"/>
</svg>
