<svg width="30" height="31" viewBox="0 0 30 31" fill="none" xmlns="http://www.w3.org/2000/svg">
<path d="M6.01555 8.77908C6.77241 7.73828 6.53933 6.28319 5.49498 5.52911C4.45063 4.77504 2.99046 5.00745 2.2336 6.04824C1.47673 7.08904 1.70981 8.54413 2.75416 9.29821C3.79851 10.0523 5.25868 9.81987 6.01555 8.77908Z" fill="#2A2941"/>
<path d="M4.13782 5.07916C5.26271 5.07916 6.26036 5.88324 6.43016 7.02581C6.64243 8.29529 5.7722 9.48024 4.49866 9.69184C4.37124 9.71299 4.24391 9.71299 4.13782 9.71299C3.01285 9.71299 2.0152 8.90892 1.8454 7.76634C1.63322 6.49678 2.50345 5.31191 3.77699 5.10031C3.88308 5.10031 4.01041 5.07916 4.13782 5.07916ZM4.13782 4.23279C3.96802 4.23279 3.79822 4.25394 3.62834 4.27509C1.88787 4.55022 0.720512 6.17943 0.996404 7.89333C1.25115 9.43794 2.56707 10.5594 4.13782 10.5594C4.30762 10.5594 4.47742 10.5382 4.64722 10.517C6.38769 10.2419 7.55513 8.61272 7.27915 6.89882C7.0245 5.35421 5.70849 4.23279 4.13782 4.23279Z" fill="#2A2941"/>
<path d="M10.7387 19.6578L12.4154 23.4876L14.4319 22.5354L12.6277 18.4517C12.6277 18.4517 12.2244 17.8169 11.8424 17.69L10.1443 17.1187L7.15156 10.3055L4.20117 11.5962L4.81675 12.9927L4.54077 18.896C4.51954 19.2558 4.81675 19.5731 5.17758 19.5943C5.53842 19.6154 5.85678 19.3192 5.87802 18.9595L6.02658 15.7645L7.25765 18.5575L6.96052 18.6844L11.0783 28.0578L13.1159 27.1692L9.6774 19.3404L10.7387 19.6578Z" fill="#2A2941"/>
<path d="M7.15153 10.3054L10.1655 17.1397L11.8635 17.711C12.2456 17.838 12.6489 18.4728 12.6489 18.4728L14.4531 22.5564L12.4366 23.5085L10.7598 19.6788L9.71976 19.3191L13.1583 27.1479L11.1206 28.0366L7.00288 18.6632L7.30009 18.5362L6.04779 15.7432L5.89923 18.9383C5.87799 19.2979 5.58078 19.573 5.21994 19.573H5.19871C4.83787 19.5519 4.54074 19.2344 4.56198 18.8747L4.83787 12.9714L4.22238 11.5749L7.15153 10.3054ZM7.59722 9.18396L6.81184 9.52246L3.86155 10.8132L3.07617 11.1518L3.41577 11.9346L3.9464 13.1619L3.69175 18.8536C3.67051 19.2556 3.81908 19.6365 4.09505 19.9538C4.37095 20.2501 4.73178 20.4193 5.15632 20.4406C5.17756 20.4406 5.19871 20.4406 5.21994 20.4406C5.77181 20.4406 6.23882 20.1443 6.51472 19.7211L10.3141 28.3751L10.6537 29.158L11.4391 28.8195L13.4767 27.9308L14.262 27.5923L13.9224 26.8094L12.7975 24.2703L14.7927 23.3393L15.5356 22.9796L15.196 22.2179L13.3918 18.1342L13.3706 18.0707L13.3281 18.0073C13.1583 17.7533 12.6914 17.1186 12.097 16.907L10.7598 16.4627L7.93682 9.94565L7.59722 9.18396Z" fill="#2A2941"/>
<path d="M16.4276 12.0829L18.2531 16.0396L13.4136 18.2613L15.3664 22.4508L10.9727 24.2704L13.2226 29.2216L22.4133 24.9898L27.9531 22.4508L25.7244 17.6688L21.9675 9.54382L16.4276 12.0829Z" fill="#2A2941"/>
<path d="M21.9674 9.54366L25.7455 17.6687L27.953 22.4295L22.4132 24.9897L13.2225 29.2215L10.9725 24.2703L15.3663 22.4506L13.4135 18.2611L18.2529 16.0394L16.4275 12.1039L21.9674 9.54366ZM22.3707 8.42224L21.6065 8.78198L16.0667 11.3422L15.3026 11.7019L15.6634 12.4636L17.128 15.6375L13.0527 17.5206L12.2886 17.8803L12.6494 18.642L14.2201 22.0274L10.6542 23.5086L9.84766 23.8472L10.2085 24.6512L12.4584 29.6023L12.8192 30.3853L13.6046 30.0255L22.7952 25.7937L28.3351 23.2335L29.0992 22.8738L28.7384 22.1121L26.5309 17.3513L22.7315 9.18401L22.3707 8.42224Z" fill="#2A2941"/>
<path d="M9.77056 16.4906L7.72949 17.3828L11.8466 26.7421L13.8877 25.8499L9.77056 16.4906Z" fill="#FFAA5B"/>
<path d="M11.6303 27.3174L7.17285 17.1822L9.99591 15.955L14.4532 26.0901L11.6303 27.3174ZM8.29783 17.6054L12.076 26.1959L13.3283 25.6458L9.55013 17.0552L8.29783 17.6054Z" fill="#2A2941"/>
<path d="M18.1043 9.90334L19.8235 13.585L15.4299 15.6163L17.7647 20.6098L13.8379 22.366L15.3662 25.8148L23.7078 21.9639L28.717 19.6576L26.6581 15.1931L23.1347 7.59705L18.1043 9.90334Z" fill="white"/>
<path d="M15.0482 26.6614L12.9893 22.0699L16.8947 20.3137L14.5812 15.3202L18.9749 13.3101L17.2556 9.62841L23.4322 6.79309L29.5664 20.0175L15.0482 26.6614ZM14.6661 22.7047L15.6849 24.9687L27.8683 19.3616L22.8166 8.44354L18.9536 10.2209L20.6729 13.9025L16.2792 15.9126L18.5928 20.9273L14.6661 22.7047Z" fill="#2A2941"/>
<path d="M14.8088 3.85681L10.5869 12.9608L11.3577 13.3158L15.5796 4.21181L14.8088 3.85681Z" fill="#2A2941"/>
<path d="M13.2227 4.78304L15.9395 5.94684L16.2579 1.73621L13.2227 4.78304Z" fill="#2A2941"/>
<path d="M16.3216 6.58147L12.501 4.93102L16.7673 0.614624L16.3216 6.58147ZM13.9656 4.63482L15.5575 5.3119L15.7485 2.83632L13.9656 4.63482Z" fill="#2A2941"/>
<path d="M4.88071 8.46467C6.17023 8.46467 7.21551 7.42261 7.21551 6.13714C7.21551 4.85175 6.17023 3.80969 4.88071 3.80969C3.59126 3.80969 2.5459 4.85175 2.5459 6.13714C2.5459 7.42261 3.59126 8.46467 4.88071 8.46467Z" fill="#FEC34E"/>
<path d="M4.88091 3.80963C6.00588 3.80963 7.00345 4.6137 7.17324 5.75628C7.38552 7.02575 6.51528 8.21071 5.24174 8.42231C5.11442 8.44346 4.98709 8.44346 4.88091 8.44346C3.75594 8.44346 2.75837 7.63938 2.58858 6.49681C2.3763 5.22725 3.24654 4.04238 4.52008 3.83078C4.64749 3.80963 4.75358 3.80963 4.88091 3.80963ZM4.88091 2.96326C4.71111 2.96326 4.54131 2.98441 4.37151 3.00556C3.54375 3.13255 2.80085 3.59804 2.29145 4.27512C1.8032 4.9522 1.61216 5.79858 1.73958 6.6238C1.99423 8.16833 3.31024 9.28983 4.88091 9.28983C5.05071 9.28983 5.22051 9.2686 5.39031 9.24745C7.13086 8.9724 8.29822 7.34319 8.02233 5.62929C7.76759 4.08468 6.45158 2.96326 4.88091 2.96326Z" fill="#2A2941"/>
<path d="M7.90676 9.01086L4.95215 10.3024L8.04644 17.3365L11.0011 16.0448L7.90676 9.01086Z" fill="#FF7A00"/>
<path d="M7.83137 17.9016L4.41406 10.0939L8.1285 8.46472L11.567 16.2724L7.83137 17.9016ZM5.5178 10.5171L8.27706 16.7802L10.4421 15.828L7.68281 9.58614L5.5178 10.5171Z" fill="#2A2941"/>
<path fill-rule="evenodd" clip-rule="evenodd" d="M15.1966 21.2868L13.3925 17.2032C13.3925 17.2032 12.9892 16.5684 12.6071 16.4414L10.0813 15.5951C9.50815 15.4047 8.87142 15.7009 8.65915 16.2934C8.46812 16.8646 8.76524 17.4994 9.35958 17.711L11.4821 18.4304L13.159 22.2601L15.1966 21.2868Z" fill="#FFAA5B"/>
<path d="M12.9671 22.7893L11.1842 18.7268L9.23146 18.0709C8.84939 17.944 8.53103 17.6688 8.33999 17.288C8.14896 16.9283 8.12772 16.5051 8.25505 16.1242C8.38247 15.7434 8.65836 15.426 9.04043 15.2356C9.40126 15.0452 9.8258 15.024 10.2079 15.1509L12.7337 15.9973C13.2219 16.1666 13.6463 16.8013 13.7313 16.9283L13.7737 16.9918L15.7477 21.4563L12.9671 22.7893ZM9.71963 15.9339C9.61353 15.9339 9.50736 15.955 9.4225 15.9973C9.2527 16.0819 9.12537 16.2089 9.0829 16.3994C9.04043 16.5898 9.04043 16.759 9.12537 16.9283C9.21023 17.0976 9.33755 17.2245 9.52859 17.2669L11.821 18.0497L13.4129 21.6467L14.6652 21.0543L13.0521 17.3726C12.9035 17.1399 12.6488 16.8648 12.5002 16.8225L9.97437 15.9762C9.86819 15.955 9.80457 15.9339 9.71963 15.9339Z" fill="#2A2941"/>
<path d="M5.94151 18.3036C5.58068 18.2825 5.28355 17.9651 5.30478 17.6054L5.58067 11.5539C5.60191 11.1942 5.92027 10.898 6.28111 10.9192C6.64194 10.9403 6.93915 11.2577 6.91792 11.6174L6.64194 17.6689C6.62079 18.0497 6.32358 18.3248 5.94151 18.3036Z" fill="#FF7A00"/>
<path d="M6.26052 10.919H6.28176C6.64259 10.9402 6.93981 11.2575 6.91857 11.6172L6.64259 17.6687C6.62136 18.0284 6.32423 18.3035 5.9634 18.3035H5.94216C5.58133 18.2823 5.2842 17.965 5.30543 17.6052L5.58133 11.5538C5.60256 11.1941 5.89969 10.919 6.26052 10.919ZM6.26052 10.0726C5.454 10.0726 4.7748 10.7074 4.75356 11.5115L4.47759 17.5629C4.45635 17.965 4.605 18.3458 4.88089 18.6632C5.15687 18.9594 5.5177 19.1287 5.94216 19.1498C5.9634 19.1498 5.98463 19.1498 6.00587 19.1498C6.81239 19.1498 7.49168 18.5151 7.51283 17.711L7.7888 11.6595C7.83127 10.8343 7.17323 10.1149 6.34547 10.0726C6.303 10.0726 6.28176 10.0726 6.26052 10.0726Z" fill="#2A2941"/>
</svg>
