<svg width="32" height="29" viewBox="0 0 32 29" fill="none" xmlns="http://www.w3.org/2000/svg">
<path fill-rule="evenodd" clip-rule="evenodd" d="M22.2021 28.0962L21.3744 26.4458C21.3744 26.2554 15.4949 23.2931 14.6671 22.6372C14.0516 22.1294 15.0067 20.9022 16.1954 21.0714C16.8533 21.156 18.3816 22.1294 18.7 21.939C19.0183 21.7485 18.1056 19.9077 18.1056 19.9077L15.4312 14.0043C15.41 13.7716 15.4525 13.56 15.5586 13.3484C15.6647 13.158 15.8345 12.9888 16.0467 12.9041C16.259 12.8195 16.4925 12.7772 16.7048 12.8406C16.917 12.8829 17.1292 13.0099 17.2779 13.1791L18.6787 16.226C18.7424 15.9298 18.9122 15.6548 19.1457 15.4432C19.3792 15.2316 19.6763 15.1258 19.9735 15.1046C20.1857 15.1258 20.398 15.1892 20.589 15.295C20.78 15.4008 20.9498 15.5278 21.0984 15.6971C21.0984 15.6971 22.2234 14.1525 23.3696 15.6124C24.0063 14.9777 24.6219 14.6814 25.4072 15.1469C27.084 19.1883 28.3576 20.9022 27.8906 22.7007L28.9944 25.1762L22.2021 28.0962Z" fill="#2A2941"/>
<path d="M20.1644 18.6593L18.8271 15.697" stroke="#2A2941" stroke-width="1.7205" stroke-miterlimit="10" stroke-linecap="square"/>
<path d="M22.542 18.2784L21.1836 15.1892" stroke="#2A2941" stroke-width="1.7205" stroke-miterlimit="10" stroke-linecap="square"/>
<path fill-rule="evenodd" clip-rule="evenodd" d="M24.7494 17.9398L23.8154 15.8663L23.4971 15.1045" fill="#2A2941"/>
<path d="M24.7494 17.9398L23.8154 15.8663L23.4971 15.1045" stroke="#2A2941" stroke-width="1.7205" stroke-miterlimit="10" stroke-linecap="square"/>
<path fill-rule="evenodd" clip-rule="evenodd" d="M6.60117 4.03824C8.36287 3.36116 10.2732 3.23417 12.0986 3.63621C13.924 4.03824 15.6008 4.99037 16.8956 6.34454C18.1903 7.69871 19.0606 9.4126 19.3789 11.2534C19.6973 13.0943 19.485 14.9986 18.721 16.7125C17.9568 18.4264 16.7258 19.8863 15.1339 20.9019C13.542 21.9175 11.6953 22.4466 9.82744 22.4042C7.93841 22.3619 6.11301 21.7906 4.56349 20.7115C3.01406 19.6535 1.82546 18.1512 1.12503 16.4163C0.191091 14.0464 0.254713 11.4227 1.27359 9.09526C2.33486 6.78888 4.22389 4.94807 6.60117 4.03824Z" fill="#2A2941"/>
<path fill-rule="evenodd" clip-rule="evenodd" d="M6.36816 3.42477C4.50036 4.18645 2.88723 5.47717 1.76225 7.14868C0.637276 8.82028 0.0217856 10.7881 0.000550042 12.7982C-0.0206855 14.8083 0.57357 16.7972 1.67731 18.4687C2.78105 20.1615 4.37295 21.4733 6.24083 22.2562C8.10871 23.0391 10.1675 23.2507 12.1415 22.891C14.1367 22.5101 15.9621 21.5579 17.4055 20.1403C18.8488 18.7226 19.8464 16.9241 20.2497 14.9352C20.653 12.9675 20.4832 10.915 19.719 9.03187C19.2096 7.78346 18.4667 6.66204 17.5328 5.68876C16.5776 4.73663 15.4527 3.97486 14.2217 3.44592C12.9905 2.91689 11.6533 2.64185 10.2949 2.64185C8.93647 2.663 7.59923 2.91689 6.36816 3.42477ZM6.83517 4.65194C8.46954 4.01716 10.2525 3.89026 11.9505 4.27106C13.6486 4.65194 15.2192 5.54062 16.4291 6.78903C17.639 8.05851 18.4455 9.6455 18.7426 11.3593C19.0398 13.0732 18.8276 14.8506 18.1271 16.4375C17.4267 18.0455 16.2593 19.3997 14.7947 20.3308C13.3302 21.2829 11.6109 21.7695 9.84917 21.7272C8.10871 21.7061 6.38939 21.1559 4.96729 20.1615C3.52395 19.167 2.42021 17.7705 1.76225 16.1624C0.892018 13.9619 0.95564 11.5075 1.88958 9.34922C2.86599 7.21222 4.64893 5.49832 6.83517 4.65194Z" fill="#2A2941"/>
<path d="M6.58009 4.14404C4.35147 9.58194 8.12961 18.9976 14.1576 21.304" stroke="#2A2941" stroke-width="1.7205" stroke-linecap="round" stroke-linejoin="round"/>
<path d="M6.64453 4.10205C14.1371 7.14897 15.7078 16.9667 14.4131 21.5371" stroke="#2A2941" stroke-width="1.7205" stroke-linecap="round" stroke-linejoin="round"/>
<path d="M6.68652 21.3888C8.23595 19.6537 10.1675 18.2784 12.3325 17.4109C14.4975 16.5434 16.8323 16.1625 19.1671 16.3318" stroke="#2A2941" stroke-width="1.7205" stroke-linecap="round" stroke-linejoin="round"/>
<path d="M13.5216 4.33447C11.2716 7.38139 6.55953 9.30688 1.99609 9.05299" stroke="#2A2941" stroke-width="1.7205" stroke-linecap="round" stroke-linejoin="round"/>
<path d="M1.5498 16.7128C9.12733 13.3062 12.3748 11.9096 18.9123 9.1167" stroke="#2A2941" stroke-width="1.7205" stroke-linecap="round" stroke-linejoin="round"/>
<path fill-rule="evenodd" clip-rule="evenodd" d="M7.47226 2.26115C9.23397 1.58407 11.1656 1.43593 13.0121 1.85912C14.8588 2.28231 16.5356 3.21328 17.8303 4.5886C19.1251 5.94277 20.0165 7.65667 20.335 9.51862C20.6746 11.3807 20.4411 13.2849 19.6769 14.9988C18.9128 16.7339 17.6605 18.1938 16.0686 19.2095C14.4767 20.225 12.63 20.7541 10.741 20.7329C8.8519 20.7118 7.00534 20.1193 5.45582 19.0402C3.90639 17.9611 2.69656 16.4587 1.99612 14.7238C1.06218 12.3539 1.12581 9.70907 2.14469 7.36047C3.18472 5.01179 5.09499 3.19213 7.47226 2.26115Z" fill="#FFAA5B"/>
<path fill-rule="evenodd" clip-rule="evenodd" d="M7.23822 1.64748C5.37043 2.40925 3.77853 3.72111 2.65355 5.39263C1.52858 7.06423 0.913086 9.03194 0.913086 11.042C0.913086 13.0521 1.48611 15.0199 2.61108 16.7127C3.71482 18.3842 5.30672 19.7172 7.1746 20.5001C9.0424 21.283 11.0801 21.4946 13.0753 21.1349C15.0705 20.754 16.8959 19.8019 18.3392 18.4054C19.7826 16.9877 20.7801 15.1892 21.2047 13.2214C21.6291 11.2536 21.4381 9.20123 20.6953 7.33927C19.6764 4.8213 17.6812 2.8112 15.1553 1.73217C12.6084 0.653048 9.76407 0.631897 7.23822 1.64748ZM7.72647 2.87474C9.36084 2.23996 11.165 2.11297 12.8842 2.515C14.6035 2.89589 16.153 3.78457 17.3841 5.05404C18.5939 6.32361 19.4005 7.91052 19.7189 9.64557C20.016 11.3806 19.8038 13.158 19.1033 14.7449C18.4029 16.3529 17.2355 17.7071 15.7497 18.6593C14.2639 19.6115 12.5447 20.0981 10.7829 20.0769C9.02116 20.0558 7.32317 19.5056 5.85859 18.5112C4.41525 17.5168 3.29028 16.1202 2.63232 14.491C1.76208 12.2693 1.80456 9.81486 2.75965 7.63547C3.71482 5.45608 5.49776 3.74226 7.72647 2.87474Z" fill="#2A2941"/>
<path fill-rule="evenodd" clip-rule="evenodd" d="M6.94152 2.17649C5.77416 5.01181 6.15614 8.9051 7.64195 12.3751C9.12776 15.8452 11.6961 18.8709 14.8374 20.0982C14.9647 20.1405 15.1134 20.1405 15.2407 20.0982C15.368 20.0347 15.4742 19.95 15.5166 19.802C15.5378 19.7384 15.5591 19.675 15.5591 19.6115C15.5591 19.5481 15.5378 19.4845 15.5166 19.4211C15.4955 19.3576 15.453 19.2941 15.3893 19.2518C15.3468 19.2095 15.2832 19.1672 15.2195 19.146C12.3328 18.0246 9.97676 15.1893 8.61836 11.9731C7.25988 8.75696 6.85666 5.1811 7.93917 2.57853C7.96032 2.51507 7.98155 2.45162 7.98155 2.38808C7.98155 2.32463 7.96032 2.26118 7.93917 2.19773C7.91793 2.13419 7.87546 2.07074 7.83299 2.02843C7.79052 1.98613 7.72689 1.94375 7.66319 1.9226C7.53586 1.88029 7.3873 1.88029 7.25988 1.9226C7.09008 1.94375 6.98399 2.04958 6.94152 2.17649Z" fill="#2A2941"/>
<path fill-rule="evenodd" clip-rule="evenodd" d="M7.32298 2.78981C8.97859 3.53034 10.4432 4.60946 11.653 5.96363C12.8416 7.31779 13.7331 8.92594 14.2425 10.6609C15.2826 13.5598 15.4948 16.67 14.8156 19.6747C14.7944 19.7381 14.7944 19.8017 14.7944 19.8863C14.7944 19.9709 14.8156 20.0132 14.858 20.0767C14.9005 20.1401 14.943 20.1825 14.9854 20.2248C15.0491 20.2671 15.0915 20.2883 15.1764 20.3094C15.3038 20.3517 15.4524 20.3306 15.5797 20.2671C15.707 20.2036 15.792 20.0978 15.8344 19.9497C16.5561 16.7336 16.3438 13.4116 15.2401 10.3013C14.667 8.4393 13.7119 6.70425 12.4171 5.24424C11.1224 3.78432 9.53046 2.62051 7.72628 1.81653C7.66258 1.77422 7.59896 1.73184 7.51401 1.71069C7.42907 1.68954 7.36545 1.68954 7.28051 1.71069C7.19565 1.73184 7.13194 1.77422 7.06824 1.81653C7.00462 1.85883 6.96215 1.94343 6.94091 2.00697C6.91967 2.07042 6.89844 2.15503 6.89844 2.23971C6.89844 2.32432 6.91967 2.38777 6.96214 2.47246C7.00462 2.53591 7.04709 2.59936 7.11071 2.64166C7.17441 2.68405 7.25927 2.72635 7.32298 2.72635V2.78981Z" fill="#2A2941"/>
<path fill-rule="evenodd" clip-rule="evenodd" d="M7.96022 20.0346C9.46727 18.3419 11.3351 17.03 13.4364 16.1837C15.5377 15.3373 17.8089 14.9776 20.0588 15.1468C20.1861 15.1468 20.3348 15.1045 20.4409 15.0199C20.547 14.9352 20.6107 14.8083 20.6319 14.6602C20.6319 14.5333 20.5894 14.3851 20.5046 14.2793C20.4196 14.1736 20.2923 14.1101 20.1437 14.089C17.724 13.9197 15.2831 14.3005 13.0331 15.2104C10.7833 16.1202 8.76683 17.5378 7.1537 19.3575C7.11123 19.3998 7.06875 19.4633 7.04752 19.5268C7.02637 19.5902 7.02637 19.6538 7.02637 19.7384C7.02637 19.8018 7.04752 19.8653 7.08999 19.9288C7.11123 19.9923 7.1537 20.0346 7.2174 20.0981C7.25979 20.1404 7.3235 20.1827 7.3872 20.2038C7.45082 20.225 7.51453 20.225 7.59939 20.225C7.6631 20.225 7.7268 20.2038 7.79042 20.1615C7.85413 20.1404 7.91784 20.0981 7.96022 20.0346Z" fill="#2A2941"/>
<path fill-rule="evenodd" clip-rule="evenodd" d="M14.009 2.23997C11.8228 5.18105 7.28047 7.00071 2.88683 6.76796C2.73818 6.76796 2.61085 6.81026 2.50476 6.89495C2.39858 6.97955 2.33496 7.1277 2.33496 7.2546C2.33496 7.40274 2.37735 7.52973 2.46229 7.63549C2.54715 7.74133 2.6958 7.80478 2.82313 7.80478C7.5776 8.05867 12.4807 6.02743 14.8368 2.85361C14.8792 2.79007 14.9005 2.72661 14.9217 2.66316C14.9429 2.59971 14.9429 2.53617 14.9217 2.45157C14.9217 2.38812 14.8792 2.32458 14.858 2.26113C14.8155 2.19767 14.773 2.15537 14.7094 2.11298C14.6032 2.02838 14.4547 2.00723 14.3274 2.02838C14.2 2.07068 14.0939 2.13413 14.009 2.23997Z" fill="#2A2941"/>
<path fill-rule="evenodd" clip-rule="evenodd" d="M2.61072 15.4853C10.2307 12.0787 13.4782 10.661 20.0369 7.84687C20.1218 7.82572 20.1855 7.80457 20.2491 7.76227C20.3128 7.71997 20.3553 7.65643 20.3977 7.59298C20.4402 7.52953 20.4614 7.44484 20.4614 7.36024C20.4614 7.27563 20.4402 7.21209 20.4189 7.12749C20.3977 7.06404 20.3341 7.0005 20.2704 6.93705C20.2067 6.89475 20.143 6.85244 20.0581 6.83129C19.9732 6.81014 19.9095 6.81014 19.8247 6.83129C19.7397 6.85244 19.676 6.8736 19.6124 6.9159C13.0962 9.70892 9.78493 11.1477 2.18626 14.5543C2.10132 14.5755 2.03761 14.5966 1.97399 14.6601C1.91028 14.7024 1.86781 14.7658 1.82543 14.8294C1.78295 14.8928 1.76172 14.9774 1.76172 15.041C1.76172 15.1256 1.78295 15.189 1.80419 15.2737C1.82543 15.3372 1.88905 15.4006 1.93152 15.4642C1.99523 15.5065 2.05885 15.5488 2.14379 15.5699C2.22865 15.5911 2.29235 15.5911 2.3773 15.5699C2.48339 15.5488 2.5471 15.5276 2.61072 15.4853Z" fill="#2A2941"/>
<path fill-rule="evenodd" clip-rule="evenodd" d="M23.1787 25.9591L22.3721 24.3087C22.3721 24.1183 16.4714 21.1772 15.6437 20.5001C15.0281 19.9923 15.9833 18.7651 17.1719 18.9344C17.8299 19.0401 19.3794 19.9923 19.6765 19.8019C19.9949 19.6115 19.0822 17.7706 19.0822 17.7706L16.3866 11.8461C16.3654 11.6134 16.4077 11.4018 16.5352 11.2113C16.6413 11.0209 16.8111 10.8728 17.0233 10.767C17.2356 10.6824 17.4479 10.64 17.6813 10.6824C17.8936 10.7247 18.1058 10.8305 18.2544 10.9998L19.6553 14.0467C19.719 13.7504 19.8888 13.4753 20.1223 13.2637C20.3558 13.0522 20.6529 12.9464 20.9713 12.9252C21.1835 12.9464 21.3958 13.0098 21.5868 13.0945C21.7779 13.2003 21.9477 13.3273 22.075 13.4965C22.075 13.4965 23.2 11.9519 24.3461 13.4119C24.9617 12.7771 25.5984 12.4809 26.3838 12.9464C28.0606 16.9877 29.3342 18.7228 28.8672 20.5213L29.9709 22.9969L23.1787 25.9591Z" fill="white"/>
<path fill-rule="evenodd" clip-rule="evenodd" d="M18.4458 18.4689H18.3609C18.0212 18.2996 17.6604 18.1938 17.2996 18.1091C16.8963 18.0457 16.4718 18.088 16.0897 18.2361C15.7076 18.3843 15.3468 18.617 15.0709 18.9132C14.9011 19.0613 14.7738 19.2306 14.6889 19.421C14.6039 19.6114 14.5615 19.823 14.5615 20.0346C14.5615 20.2462 14.6039 20.4578 14.6889 20.6483C14.7738 20.8387 14.9011 21.0291 15.0709 21.156C15.8138 21.7697 20.5683 24.203 21.6508 24.8589L22.7333 27.0594L31.1174 23.4412L29.7802 20.4367C29.9075 19.6114 29.8227 18.7651 29.5043 17.9822C29.0798 16.6915 28.2095 15.0835 27.1906 12.629L27.0846 12.3751L26.851 12.227C26.4266 11.9519 25.9172 11.8249 25.4077 11.8884C25.0469 11.9308 24.686 12.0788 24.3889 12.2904C24.113 12.1 23.7946 11.9942 23.455 11.9519C22.988 11.9308 22.5423 12.0577 22.1602 12.3327L22.0753 12.3963C21.757 12.2058 21.4174 12.1 21.0353 12.0788C20.632 12.0788 20.2287 12.2058 19.8891 12.4174L19.0401 10.6189L18.9764 10.5342C18.7005 10.2169 18.3397 9.98414 17.9151 9.89954C17.5118 9.81485 17.0661 9.85715 16.6841 10.0264C16.302 10.1957 15.9836 10.4919 15.7714 10.8517C15.5591 11.2113 15.4955 11.6345 15.5591 12.0577V12.1635L18.3609 18.1938L18.4882 18.5112L18.4458 18.4689ZM23.1791 25.9592L22.3725 24.3087C22.33 24.1183 16.4718 21.1772 15.644 20.5001C15.0285 19.9923 15.9836 18.7651 17.1722 18.9344C17.8303 19.0402 19.3797 19.9923 19.6768 19.8019C19.974 19.6114 19.0826 17.7706 19.0826 17.7706L16.3869 11.8461C16.3657 11.6134 16.4081 11.4018 16.5355 11.2113C16.6416 11.021 16.8114 10.8728 17.0237 10.767C17.2359 10.6824 17.4482 10.6401 17.6816 10.6824C17.8939 10.7247 18.1062 10.8305 18.2547 10.9997L19.6768 14.0466C19.7405 13.7504 19.9103 13.4754 20.1438 13.2638C20.3773 13.0522 20.6745 12.9464 20.9928 12.9252C21.2051 12.9464 21.4174 13.0098 21.6084 13.0945C21.7994 13.2003 21.9692 13.3273 22.0966 13.4965C22.0966 13.4965 23.2216 11.9519 24.3677 13.4119C24.9833 12.7771 25.62 12.4809 26.4054 12.9464C28.0822 16.9877 29.3769 18.7228 28.8887 20.5213L29.9925 22.9969L23.1791 25.9592Z" fill="#2A2941"/>
<path fill-rule="evenodd" clip-rule="evenodd" d="M21.842 16.6916L20.1653 12.9253L19.3799 13.285L21.0567 17.0512L21.842 16.6916Z" fill="#2A2941"/>
<path fill-rule="evenodd" clip-rule="evenodd" d="M24.0915 16.374L22.3934 12.502L21.5869 12.8405L23.2849 16.7125L24.0915 16.374Z" fill="#2A2941"/>
<path fill-rule="evenodd" clip-rule="evenodd" d="M25.7259 15.8238L24.792 13.7503L24.4736 12.9885" fill="#FAA2A2"/>
<path fill-rule="evenodd" clip-rule="evenodd" d="M26.2987 16.0355L25.1949 13.5388L24.6855 12.3962L23.8789 12.7347L24.3883 13.8773L25.5133 16.3529L26.2987 16.0355Z" fill="#2A2941"/>
</svg>
