<svg width="21" height="35" viewBox="0 0 21 35" fill="none" xmlns="http://www.w3.org/2000/svg">
<path fill-rule="evenodd" clip-rule="evenodd" d="M8.12676 12.4024C9.4003 11.8733 10.8224 11.7253 12.1809 12.0003C13.5393 12.2754 14.7916 12.9313 15.7892 13.9047C16.7656 14.878 17.4448 16.1264 17.7207 17.4805C17.9967 18.8347 17.8693 20.2523 17.3387 21.5219C16.808 22.8126 15.9166 23.9129 14.7704 24.6745C13.6242 25.4574 12.2657 25.8806 10.8861 25.8806C9.50647 25.9017 8.12676 25.4998 6.98063 24.738C5.81319 23.9763 4.90048 22.8972 4.34861 21.6276C3.62694 19.9138 3.62694 17.9672 4.32746 16.2533C5.0279 14.5182 6.38629 13.1429 8.12676 12.4235V12.4024Z" fill="#2A2941"/>
<path fill-rule="evenodd" clip-rule="evenodd" d="M7.72368 11.4714C6.25911 12.1062 5.02804 13.143 4.1578 14.476C3.28749 15.809 2.84179 17.3748 2.86303 18.9405C2.88427 20.5274 3.37243 22.0721 4.28513 23.3839C5.1766 24.6958 6.45014 25.7114 7.93595 26.2827C9.42167 26.8752 11.0348 27.0021 12.5843 26.6847C14.1338 26.3673 15.5559 25.5845 16.6808 24.4419C17.7846 23.2992 18.5487 21.8816 18.8458 20.3159C19.143 18.7501 18.9732 17.142 18.3364 15.682C17.9119 14.7088 17.3176 13.8201 16.5535 13.0795C15.7894 12.3389 14.8979 11.7465 13.9002 11.3656C12.9239 10.9636 11.8627 10.7732 10.8014 10.7943C9.74012 10.8366 8.7 11.0694 7.72368 11.4714ZM8.1269 12.4236C9.40044 11.8946 10.8226 11.7465 12.181 12.0216C13.5394 12.2966 14.7917 12.9525 15.7894 13.9258C16.7657 14.8992 17.445 16.1475 17.7209 17.5017C17.9968 18.8559 17.8694 20.2736 17.3388 21.5431C16.8082 22.8337 15.9167 23.934 14.7706 24.6958C13.6244 25.4786 12.2659 25.9018 10.8862 25.9018C9.50661 25.923 8.1269 25.5209 6.98077 24.7592C5.81333 23.9976 4.90062 22.9184 4.36999 21.6489C3.64832 19.935 3.62708 17.9884 4.34875 16.2534C5.02804 14.5395 6.40767 13.1641 8.1269 12.4236Z" fill="#2A2941"/>
<path fill-rule="evenodd" clip-rule="evenodd" d="M5.79185 20.9292C5.26121 19.6174 5.26121 18.1574 5.81308 16.8667C6.36495 15.576 7.40498 14.5392 8.69976 14.0103" fill="#2A2941"/>
<path d="M5.79185 20.9292C5.26121 19.6174 5.26121 18.1574 5.81308 16.8667C6.36495 15.576 7.40498 14.5392 8.69976 14.0103" stroke="#2A2941" stroke-width="0.869556" stroke-miterlimit="1.22" stroke-linecap="square"/>
<path fill-rule="evenodd" clip-rule="evenodd" d="M15.7263 16.7185C16.2569 18.0304 16.2569 19.4904 15.705 20.7811C15.1532 22.0718 14.1131 23.1085 12.8184 23.6587" fill="#2A2941"/>
<path d="M15.7263 16.7185C16.2569 18.0304 16.2569 19.4904 15.705 20.7811C15.1532 22.0718 14.1131 23.1085 12.8184 23.6587" stroke="#2A2941" stroke-width="0.869556" stroke-miterlimit="1.22" stroke-linecap="square"/>
<path fill-rule="evenodd" clip-rule="evenodd" d="M13.7944 5.86426C13.7944 5.86426 7.00223 8.72073 6.06829 9.39781C5.34662 10.096 4.70981 10.879 4.17917 11.7253C3.58492 12.5505 2.96934 13.418 2.45994 14.2009C1.4623 15.682 0.655771 16.613 1.58971 16.867C1.97178 16.9727 3.33018 15.7667 4.68866 14.476L7.74513 11.6618C7.34183 12.2754 8.38186 13.6085 9.37942 13.4603C10.0587 13.3546 11.3322 12.6139 12.3723 12.36C13.4123 12.1061 14.7283 13.2276 16.4688 12.0215L13.7944 5.86426Z" fill="#2A2941"/>
<path fill-rule="evenodd" clip-rule="evenodd" d="M7.21443 13.4603C7.4904 13.7988 7.83 14.0528 8.23331 14.222C8.63661 14.3913 9.06107 14.4547 9.48561 14.4124C10.1648 14.3067 11.4808 13.5661 12.5209 13.3122C13.0302 13.291 13.5396 13.3545 14.0279 13.5026C14.5585 13.6085 15.0892 13.6085 15.5986 13.5026C16.1292 13.3969 16.6174 13.1853 17.0419 12.889L17.7211 12.4023L14.3038 4.53125L13.3698 4.93329C13.3698 4.93329 6.4079 7.89551 5.45273 8.5726C4.62496 9.33428 3.92453 10.2018 3.33019 11.1328C2.73585 11.9792 2.12036 12.8467 1.58972 13.6296C1.01662 14.349 0.549692 15.1318 0.188858 15.9782C0.125151 16.1686 0.103915 16.3802 0.125151 16.5707C0.146386 16.7611 0.210007 16.9516 0.294949 17.1419C0.401042 17.3112 0.549691 17.4805 0.698255 17.6074C0.868054 17.7344 1.05909 17.819 1.25012 17.8614C1.63219 17.946 2.01418 17.8825 2.35386 17.6921C3.43637 16.9727 4.43393 16.1475 5.34663 15.2165L7.21443 13.4603ZM13.7944 5.82196C13.7944 5.82196 7.00224 8.67835 6.0683 9.35543C5.34663 10.0538 4.70982 10.8366 4.17919 11.683C3.58493 12.5082 2.96935 13.3756 2.45996 14.1586C1.46231 15.6186 0.655785 16.5495 1.58972 16.8246C1.97179 16.9303 3.33019 15.7243 4.68867 14.4336L7.74514 11.6195C7.34184 12.2331 8.38187 13.5661 9.37943 13.418C10.0587 13.3122 11.3323 12.5716 12.3723 12.3177C13.4123 12.0638 14.7283 13.1853 16.4688 11.9792L13.7944 5.82196Z" fill="#2A2941"/>
<path fill-rule="evenodd" clip-rule="evenodd" d="M12.075 9.41895C11.7779 9.82098 11.4383 10.1806 11.0562 10.5192C10.4831 10.9212 8.86998 11.4713 7.95727 12.0003C7.5752 12.2966 7.2356 12.6351 6.93848 13.016" fill="#2A2941"/>
<path d="M12.075 9.41895C11.7779 9.82098 11.4383 10.1806 11.0562 10.5192C10.4831 10.9212 8.86998 11.4713 7.95727 12.0003C7.5752 12.2966 7.2356 12.6351 6.93848 13.016" stroke="#2A2941" stroke-width="1.20256" stroke-miterlimit="1.22" stroke-linecap="round"/>
<path fill-rule="evenodd" clip-rule="evenodd" d="M16.0652 3.81177L14.0488 4.70044L17.4024 12.4658L19.4401 11.5983L16.0652 3.81177Z" fill="#2A2941"/>
<path fill-rule="evenodd" clip-rule="evenodd" d="M20.3532 11.958L16.4051 2.85962L13.1152 4.31962L17.0632 13.3968L20.3532 11.958ZM16.0443 3.81183L14.0279 4.70051L17.3603 12.4446L19.398 11.5772L16.0443 3.81183Z" fill="#2A2941"/>
<path fill-rule="evenodd" clip-rule="evenodd" d="M7.21444 32.0165C7.21444 32.0165 14.0067 29.1389 14.9406 28.4829C15.6623 27.7847 16.299 27.0018 16.8296 26.1555C17.424 25.3303 18.0395 24.4628 18.549 23.6798C19.5465 22.2199 20.3531 21.2678 19.4192 21.0138C19.0371 20.908 17.6786 22.1141 16.3202 23.4048C14.792 24.8436 13.2638 26.219 13.2638 26.219C13.6671 25.6265 12.627 24.2723 11.6294 24.4416C10.9502 24.5474 9.67666 25.288 8.63663 25.4783C7.59651 25.6688 6.28059 24.6109 4.54004 25.8169L7.21444 32.0165Z" fill="#2A2941"/>
<path fill-rule="evenodd" clip-rule="evenodd" d="M13.794 24.3994C13.5181 24.0609 13.1785 23.807 12.7752 23.6378C12.3719 23.4685 11.9474 23.405 11.5229 23.4473C10.8436 23.5531 9.52772 24.2937 8.48761 24.5476C7.97821 24.5687 7.46881 24.5053 6.98064 24.3571C6.45001 24.2725 5.91938 24.2937 5.40998 24.3994C4.9005 24.5264 4.41233 24.738 3.98779 25.0554L3.30859 25.5209L6.7259 33.392L7.65984 32.99C7.65984 32.99 14.6218 30.0489 15.577 29.3718C16.4047 28.6101 17.1052 27.7426 17.6995 26.7904C18.2938 25.9652 18.9094 25.0765 19.4401 24.2937C19.9919 23.5742 20.4801 22.7914 20.8409 21.9662C20.9258 21.67 20.947 21.3738 20.8409 21.0775C20.7347 20.7813 20.5862 20.5274 20.3315 20.3369C20.0768 20.1465 19.8009 20.0407 19.5037 20.0196C19.2065 19.9984 18.9094 20.083 18.6334 20.2311C17.5509 20.9506 16.5534 21.7969 15.6407 22.7068L13.794 24.3994ZM7.21415 32.0379C7.21415 32.0379 14.0063 29.1603 14.9402 28.5043C15.6619 27.8061 16.2986 27.0232 16.8293 26.1768C17.4236 25.3516 18.0391 24.4841 18.5486 23.7012C19.5461 22.2413 20.3528 21.2891 19.4188 21.0352C19.0367 20.9294 17.6783 22.1354 16.3199 23.4262C14.7916 24.8649 13.2634 26.2402 13.2634 26.2402C13.6667 25.6267 12.6266 24.2937 11.629 24.4629C10.9498 24.5687 9.67629 25.2881 8.63625 25.4997C7.59614 25.7113 6.28021 24.6322 4.53966 25.8383L7.21415 32.0379Z" fill="#2A2941"/>
<path fill-rule="evenodd" clip-rule="evenodd" d="M8.91211 28.4408C9.20924 28.0387 9.54884 27.6791 9.90967 27.3405C10.4828 26.9385 12.0959 26.3884 13.0086 25.8594C13.3907 25.5631 13.7303 25.2246 14.0275 24.8438" fill="#2A2941"/>
<path d="M8.91211 28.4408C9.20924 28.0387 9.54884 27.6791 9.90967 27.3405C10.4828 26.9385 12.0959 26.3884 13.0086 25.8594C13.3907 25.5631 13.7303 25.2246 14.0275 24.8438" stroke="#2A2941" stroke-width="1.20256" stroke-miterlimit="1.22" stroke-linecap="round"/>
<path fill-rule="evenodd" clip-rule="evenodd" d="M4.90121 34.0691L6.91765 33.1804L3.56404 25.415L1.52637 26.2826L4.90121 34.0691Z" fill="#2A2941"/>
<path fill-rule="evenodd" clip-rule="evenodd" d="M0.591797 25.9017L4.53974 35L7.82972 33.5401L3.94549 24.4629L0.591797 25.9017ZM4.90058 34.069L6.91702 33.1804L3.56341 25.415L1.52574 26.2825L4.90058 34.069Z" fill="#2A2941"/>
<path d="M9.65564 15.83L9.8042 16.1686C10.0165 16.0839 10.2287 16.0416 10.441 16.0416C10.632 16.0416 10.823 16.0627 11.014 16.1474C11.1414 16.2109 11.29 16.2743 11.3961 16.3802C11.481 16.4648 11.5659 16.5495 11.6084 16.6552C11.6296 16.6975 11.6508 16.7611 11.6508 16.8245C11.6508 16.888 11.6296 16.9303 11.6084 16.9938C11.5659 17.0996 11.481 17.1842 11.3749 17.2477C11.29 17.29 11.1627 17.3112 11.0777 17.29C10.9716 17.2688 10.8867 17.2054 10.823 17.1207C10.7381 17.015 10.6108 16.9303 10.4834 16.8668C10.3561 16.8245 10.2075 16.8034 10.0802 16.8245L10.6957 18.1364C10.9292 18.0941 11.1838 18.0517 11.4173 18.0305C11.6084 18.0305 11.7782 18.0305 11.948 18.0941C12.139 18.1575 12.2876 18.2421 12.4361 18.3691C12.5848 18.496 12.7121 18.6653 12.797 18.8558C12.9031 19.0885 12.9669 19.3424 12.9456 19.6174C12.9244 19.8926 12.8394 20.1465 12.6909 20.3581C12.5211 20.612 12.2876 20.8236 12.0329 20.9716L12.415 21.7545C12.4574 21.8391 12.4998 21.945 12.4998 22.0507C12.4998 22.0931 12.4786 22.1143 12.4574 22.1566C12.4361 22.1777 12.415 22.1989 12.3725 22.22C12.3513 22.2412 12.3088 22.2412 12.2876 22.2412C12.2452 22.2412 12.224 22.2412 12.2027 22.22C12.139 22.1777 12.0753 22.093 12.0542 22.0296L11.6508 21.1832C11.4173 21.2679 11.1838 21.3313 10.9292 21.3313C10.7169 21.3313 10.5046 21.289 10.3136 21.2044C10.1438 21.1409 9.99524 21.0563 9.84667 20.9293C9.71935 20.8236 9.63441 20.6966 9.5707 20.5485C9.54955 20.5061 9.52831 20.4427 9.52831 20.3792C9.52831 20.3158 9.54955 20.2734 9.5707 20.2099C9.59193 20.1465 9.61317 20.1042 9.65564 20.0618C9.69811 20.0195 9.7405 19.9772 9.8042 19.956C9.88915 19.9137 9.974 19.8926 10.0802 19.8926C10.165 19.9137 10.25 19.956 10.2924 20.0195C10.3985 20.1253 10.5046 20.2522 10.6321 20.3369C10.7169 20.4004 10.823 20.4638 10.9292 20.5061C11.0777 20.5273 11.2051 20.5273 11.3536 20.5061L10.6532 19.0462C10.3773 19.0885 10.1013 19.1308 9.82544 19.1308C9.59193 19.1308 9.35851 19.0462 9.16748 18.9404C8.93397 18.7923 8.76417 18.6019 8.65799 18.348C8.57314 18.1787 8.50943 18.0094 8.50943 17.8189C8.48819 17.6285 8.53066 17.4381 8.59437 17.2688C8.74294 16.888 9.04006 16.5706 9.4009 16.3802L9.2311 16.0627C9.14624 15.8935 9.16748 15.7665 9.31604 15.7031C9.44337 15.6396 9.54955 15.7031 9.63441 15.8724L9.65564 15.83ZM10.2712 18.1787L9.69811 16.9726C9.5707 17.0784 9.4646 17.2265 9.4009 17.3746C9.35851 17.4381 9.35851 17.5227 9.35851 17.6073C9.35851 17.692 9.37966 17.7555 9.4009 17.8401C9.42213 17.9036 9.46461 17.9671 9.52831 18.0305C9.59193 18.0728 9.65564 18.1152 9.71935 18.1575C9.88915 18.1998 10.0802 18.1998 10.25 18.1575L10.2712 18.1787ZM11.1202 18.9192L11.7782 20.2945C11.948 20.1676 12.0753 19.9983 12.1602 19.8079C12.2027 19.7233 12.224 19.6386 12.224 19.5328C12.224 19.4482 12.2027 19.3424 12.1602 19.2578C12.1178 19.1731 12.0753 19.1097 12.0117 19.0462C11.948 18.9827 11.8631 18.9404 11.7782 18.9192C11.5659 18.8769 11.3749 18.8769 11.1627 18.9192H11.1202Z" fill="#2A2941" stroke="#2A2941" stroke-width="0.407028" stroke-linejoin="round"/>
<path fill-rule="evenodd" clip-rule="evenodd" d="M8.19122 10.075C9.46476 9.54601 10.8869 9.39787 12.2453 9.67292C13.6037 9.94796 14.856 10.6039 15.8537 11.5773C16.8512 12.5505 17.5092 13.799 17.7852 15.1531C18.0611 16.5073 17.9338 17.9249 17.4031 19.1945C16.8725 20.4852 15.981 21.5854 14.8348 22.3471C13.6887 23.1301 12.3302 23.5532 10.9293 23.5532C9.5497 23.5744 8.16999 23.1724 7.02386 22.4106C5.85642 21.6489 4.94371 20.5698 4.41308 19.2791C3.69141 17.5653 3.69141 15.6186 4.39184 13.9047C5.11351 12.1909 6.47199 10.7943 8.19122 10.075Z" fill="#FEC34E"/>
<path fill-rule="evenodd" clip-rule="evenodd" d="M7.78715 9.14374C6.32258 9.77852 5.07028 10.8153 4.22128 12.1483C3.35105 13.4813 2.90527 15.047 2.92651 16.634C2.94774 18.2209 3.4359 19.7655 4.34861 21.0773C5.24008 22.3892 6.51361 23.4049 7.99942 23.9973C9.48523 24.5897 11.0984 24.7379 12.669 24.3993C14.2186 24.082 15.6618 23.299 16.7655 22.1565C17.8905 21.0139 18.6334 19.5751 18.9305 18.0305C19.2278 16.4647 19.058 14.8566 18.4212 13.3967C17.5722 11.4289 15.9803 9.88427 13.985 9.0802C11.9898 8.27621 9.76113 8.29736 7.78715 9.14374ZM8.19046 10.0747C9.464 9.54569 10.8861 9.39763 12.2445 9.67268C13.603 9.94773 14.8553 10.6037 15.8528 11.577C16.8505 12.5503 17.5084 13.7987 17.7844 15.1529C18.0603 16.507 17.933 17.9247 17.4024 19.1942C16.8717 20.4849 15.9803 21.5852 14.834 22.3469C13.6878 23.1298 12.3294 23.5529 10.9286 23.5529C9.54885 23.5742 8.16922 23.1721 7.0231 22.4104C5.85565 21.6487 4.94295 20.5695 4.41231 19.2788C3.69065 17.565 3.66941 15.6184 4.39108 13.8833C5.11275 12.1906 6.47123 10.7941 8.19046 10.0747Z" fill="#2A2941"/>
<path fill-rule="evenodd" clip-rule="evenodd" d="M5.8563 18.5808C5.32566 17.269 5.32566 15.809 5.87753 14.5182C6.4294 13.2276 7.46944 12.1908 8.76421 11.6406" fill="#FEC34E"/>
<path fill-rule="evenodd" clip-rule="evenodd" d="M6.11071 18.475C5.85597 17.8615 5.72864 17.2055 5.72864 16.5285C5.72864 15.8725 5.85597 15.1954 6.11071 14.5818C6.36536 13.9682 6.74743 13.4181 7.21445 12.9525C7.68137 12.487 8.25448 12.1062 8.86997 11.8523L9.10348 11.7465L8.91244 11.281L8.67893 11.3868C7.2993 11.9581 6.2168 13.0372 5.6437 14.3914C5.07059 15.7667 5.07059 17.2901 5.6437 18.6655L5.74987 18.8982L6.2168 18.7078L6.11071 18.475Z" fill="#2A2941"/>
<path fill-rule="evenodd" clip-rule="evenodd" d="M15.8112 14.3911C16.3419 15.703 16.3419 17.1629 15.79 18.4536C15.2381 19.7443 14.1981 20.7811 12.9033 21.3312" fill="#FEC34E"/>
<path fill-rule="evenodd" clip-rule="evenodd" d="M15.5775 14.4757C16.0869 15.7241 16.0869 17.1206 15.5562 18.3478C15.0256 19.5962 14.0492 20.5695 12.7969 21.0773L12.5635 21.1831L12.7545 21.6486L12.9879 21.5429C14.3676 20.9715 15.4502 19.8924 16.0233 18.5382C16.5963 17.1841 16.5963 15.6395 16.0444 14.2641L15.9808 14.0103L15.5138 14.2007L15.6199 14.4334L15.5775 14.4757Z" fill="#2A2941"/>
<path fill-rule="evenodd" clip-rule="evenodd" d="M13.7942 3.51538C13.7942 3.51538 7.04441 6.37185 6.13179 7.04894C5.41012 7.74717 4.77331 8.53001 4.24268 9.37638C3.64834 10.2016 3.03285 11.0691 2.52345 11.852C1.5258 13.312 0.719275 14.2641 1.65313 14.518C2.0352 14.6238 3.39368 13.4177 4.75208 12.1271C6.28036 10.6882 7.80855 9.29178 7.80855 9.29178C7.40525 9.88417 8.44536 11.2384 9.44292 11.0691C10.1221 10.9633 11.3957 10.2228 12.4358 10.0323C13.4758 9.84187 14.7917 10.8998 16.5323 9.69381L13.7942 3.51538Z" fill="white"/>
<path fill-rule="evenodd" clip-rule="evenodd" d="M7.29935 11.1327C7.57533 11.4713 7.91492 11.7252 8.31823 11.8945C8.72145 12.0638 9.14599 12.1273 9.57053 12.1061C10.2497 12.0003 11.5657 11.2597 12.6058 11.0058C13.1152 10.9847 13.6246 11.0481 14.1127 11.1963C14.6434 11.2809 15.174 11.2597 15.6835 11.1539C16.1929 11.027 16.681 10.8154 17.1056 10.498L17.7848 10.0325L14.3675 2.16138L13.4335 2.56341C13.4335 2.56341 6.47159 5.52564 5.51641 6.20272C4.70988 6.9645 3.98822 7.83194 3.39388 8.763C2.79954 9.60929 2.18404 10.4768 1.65341 11.2597C1.0803 11.9791 0.613293 12.762 0.252459 13.5872C0.12513 13.9469 0.167601 14.3701 0.358636 14.7298C0.464729 14.899 0.613293 15.0683 0.761941 15.1953C0.931741 15.3222 1.12278 15.4069 1.31381 15.4492C1.67465 15.5338 2.07787 15.4915 2.41747 15.3011C3.49997 14.5817 4.49762 13.7353 5.41032 12.8255L7.27811 11.1116L7.29935 11.1327ZM13.8581 3.49439C13.8581 3.49439 7.04469 6.37201 6.11075 7.0491C5.38908 7.74733 4.75227 8.53025 4.22164 9.37654C3.62738 10.2018 3.01181 11.0693 2.50241 11.8522C1.50476 13.3121 0.698235 14.2643 1.63217 14.5182C2.01424 14.624 3.37264 13.418 4.73112 12.1273C6.25932 10.6884 7.7876 9.31309 7.7876 9.31309C7.38429 9.90557 8.42432 11.2597 9.42188 11.0904C10.1012 10.9847 11.3747 10.2441 12.4147 10.0536C13.4548 9.86327 14.7708 10.9212 16.5112 9.71513L13.7519 3.53669L13.8581 3.49439Z" fill="#2A2941"/>
<path fill-rule="evenodd" clip-rule="evenodd" d="M7.29979 10.879C7.55454 10.5404 7.85166 10.2442 8.19126 9.99028C9.1252 9.48241 10.7383 8.89001 11.3114 8.50913C11.7147 8.14939 12.0967 7.74744 12.4152 7.3031C12.4576 7.21841 12.5 7.13381 12.4788 7.04912C12.4576 6.96452 12.4152 6.87991 12.3515 6.81638C12.309 6.79523 12.2665 6.77407 12.2241 6.75292C12.1817 6.73177 12.1392 6.73177 12.0755 6.75292C12.0331 6.75292 11.9906 6.77408 11.9482 6.79523C11.9057 6.81638 11.8633 6.85876 11.8421 6.90106C11.5661 7.28187 11.269 7.62045 10.9081 7.91665C10.335 8.29753 8.76437 8.84763 7.85166 9.37665C7.44836 9.67285 7.06629 10.0114 6.74793 10.4135C6.68422 10.4769 6.64183 10.5404 6.59936 10.625C6.57813 10.6674 6.57812 10.7097 6.57812 10.752C6.57812 10.7943 6.57813 10.8366 6.59936 10.879C6.6206 10.9213 6.64183 10.9636 6.66307 11.0059C6.70545 11.0482 6.72669 11.0693 6.76916 11.0906C6.85402 11.1117 6.91772 11.1117 7.00267 11.0906C7.08752 11.0693 7.15123 11.027 7.1937 10.9636C7.1937 10.9424 7.1937 10.9213 7.1937 10.9001H7.29979V10.879Z" fill="#2A2941"/>
<path fill-rule="evenodd" clip-rule="evenodd" d="M16.1297 1.48413L14.1133 2.37281L17.4669 10.1382L19.5046 9.27063L16.1297 1.48413Z" fill="#FF7A00"/>
<path fill-rule="evenodd" clip-rule="evenodd" d="M20.4596 9.65158L16.5117 0.553223L13.2217 2.01314L17.0848 11.0692L20.4596 9.65158ZM16.0659 1.4842L14.0495 2.37288L17.4031 10.1382L19.4408 9.2707L16.0659 1.4842Z" fill="#2A2941"/>
<path fill-rule="evenodd" clip-rule="evenodd" d="M7.27792 29.6681C7.27792 29.6681 14.0701 26.8117 15.004 26.1346C15.7257 25.4575 16.3625 24.6747 16.8931 23.8283C17.4874 23.0031 18.103 22.1355 18.6124 21.3527C19.61 19.8927 20.4165 18.9617 19.4826 18.6867C19.1005 18.5808 17.7421 19.7869 16.3837 21.0776L13.3272 23.9129C13.7305 23.2993 12.6904 21.9662 11.6929 22.1144C11.0136 22.2202 9.74014 22.9608 8.70002 23.2146C7.65999 23.4685 6.34398 22.3471 4.60352 23.5531L7.29916 29.7316V29.6681H7.27792Z" fill="white"/>
<path fill-rule="evenodd" clip-rule="evenodd" d="M13.794 22.072C13.5181 21.7334 13.1785 21.4795 12.7752 21.3102C12.3719 21.141 11.9474 21.0775 11.5229 21.1199C10.8436 21.2256 9.52772 21.9662 8.48761 22.2201C7.97821 22.2413 7.46881 22.1777 6.98065 22.0297C6.47125 21.945 5.91938 21.945 5.40998 22.072C4.9005 22.1989 4.41233 22.4105 3.98779 22.7279L3.30859 23.2146L6.7259 31.0857L7.65984 30.6837C7.65984 30.6837 14.6218 27.7214 15.577 27.0443C16.4047 26.2826 17.1052 25.4151 17.6995 24.4841C18.2938 23.6378 18.9094 22.7702 19.4401 21.9873C20.0131 21.2679 20.4801 20.4851 20.8409 19.6387C20.9045 19.4483 20.9258 19.2367 20.9045 19.0251C20.8834 18.8135 20.8197 18.623 20.7136 18.4538C20.6074 18.2845 20.4801 18.1153 20.3103 18.0095C20.1405 17.8825 19.9495 17.7979 19.7584 17.7555C19.3763 17.6709 18.9943 17.7344 18.6547 17.9248C17.5722 18.6442 16.5746 19.4906 15.6619 20.4004L13.794 22.072ZM7.21415 29.7103C7.21415 29.7103 14.0063 26.8539 14.9402 26.1768C15.6831 25.4786 16.3411 24.6957 16.8717 23.8282C17.4661 23.003 18.0816 22.1354 18.591 21.3526C19.5886 19.8926 20.3951 18.9616 19.4612 18.6866C19.0792 18.5807 17.7207 19.7869 16.3623 21.0775L13.3271 23.9128C13.7303 23.2992 12.6903 21.9662 11.6927 22.1143C11.0134 22.2201 9.73999 22.9607 8.69988 23.2146C7.65984 23.4685 6.34384 22.347 4.60337 23.5531L7.29901 29.7315L7.21415 29.7103Z" fill="#2A2941"/>
<path fill-rule="evenodd" clip-rule="evenodd" d="M13.7945 22.3259C13.5398 22.6433 13.2427 22.9396 12.9031 23.2146C11.9691 23.7224 10.356 24.3149 9.7829 24.6957C9.37968 25.0554 8.99761 25.4575 8.67916 25.9018C8.65801 25.9441 8.63677 25.9864 8.61554 26.0287C8.5943 26.0711 8.5943 26.1134 8.61554 26.1557C8.61554 26.198 8.63677 26.2403 8.65801 26.2827C8.67916 26.325 8.72163 26.3461 8.74286 26.3884C8.82781 26.4519 8.91266 26.473 9.01884 26.4519C9.1037 26.4307 9.18864 26.3884 9.25226 26.3038C9.507 25.9229 9.82537 25.5844 10.1862 25.2882C10.7593 24.8861 12.3724 24.336 13.2427 23.8282C13.646 23.532 14.0068 23.1723 14.3464 22.7914C14.4101 22.728 14.4525 22.6433 14.495 22.5798C14.5162 22.5375 14.5162 22.4952 14.5162 22.4528C14.5162 22.4105 14.5162 22.3682 14.495 22.3259C14.4737 22.2836 14.4525 22.2412 14.4313 22.1989C14.3889 22.1566 14.3464 22.1355 14.3039 22.1355C14.2403 22.1143 14.1554 22.1143 14.0704 22.1355C13.9856 22.1566 13.9219 22.1989 13.8795 22.2624V22.3259H13.7945Z" fill="#2A2941"/>
<path fill-rule="evenodd" clip-rule="evenodd" d="M4.96468 31.7204L6.98112 30.8318L3.62744 23.0664L1.58984 23.9339L4.96468 31.7204Z" fill="#FF7A00"/>
<path fill-rule="evenodd" clip-rule="evenodd" d="M0.65625 23.553L4.60419 32.6514L7.89418 31.1915L3.96747 22.1143L0.65625 23.553ZM4.96503 31.7204L6.98147 30.8317L3.62778 23.0664L1.59019 23.9339L4.96503 31.7204Z" fill="#2A2941"/>
<path d="M9.71912 13.5027L9.86768 13.8412C10.08 13.7566 10.2921 13.7143 10.5044 13.7143C10.6954 13.6931 10.8865 13.7354 11.0775 13.82C11.2048 13.8835 11.3535 13.947 11.4596 14.0528C11.5444 14.1375 11.6294 14.2221 11.6719 14.3278C11.6931 14.3702 11.7143 14.4337 11.7143 14.4971C11.7143 14.5606 11.6931 14.603 11.6719 14.6664C11.6294 14.7722 11.5445 14.8569 11.4383 14.9203C11.3323 14.9626 11.2261 14.9838 11.1412 14.9415C11.035 14.9203 10.9502 14.8569 10.8865 14.7722C10.8016 14.6664 10.6742 14.5818 10.5469 14.5394C10.4196 14.4971 10.271 14.476 10.1223 14.4971L10.7379 15.809C10.9714 15.7667 11.2261 15.7244 11.4596 15.7032C11.6506 15.6821 11.8204 15.7032 11.9902 15.7667C12.1813 15.809 12.3511 15.9148 12.4784 16.0417C12.6269 16.1687 12.7544 16.3379 12.8392 16.5284C12.9454 16.7611 13.009 17.0151 12.9878 17.2901C12.9666 17.5652 12.8817 17.8191 12.7331 18.0307C12.5633 18.2846 12.3298 18.4962 12.0752 18.6232L12.4571 19.406C12.5209 19.4907 12.5421 19.5964 12.5633 19.681C12.5633 19.7234 12.5633 19.7446 12.5421 19.7869C12.5209 19.808 12.4784 19.8292 12.4571 19.8503C12.3723 19.8503 12.3086 19.8503 12.2661 19.8503C12.2025 19.808 12.1388 19.7234 12.1175 19.6599L11.7143 18.8136C11.4808 18.8982 11.2473 18.9405 10.9927 18.9405C10.7804 18.9405 10.5681 18.8982 10.3771 18.8347C10.2073 18.7712 10.0587 18.6866 9.91015 18.5596C9.78274 18.4539 9.67665 18.3269 9.61294 18.1788C9.57047 18.073 9.57047 17.9672 9.61294 17.8614C9.63417 17.7979 9.65541 17.7556 9.69788 17.7133C9.74027 17.6709 9.78274 17.6286 9.84644 17.6075C9.9313 17.5863 10.0375 17.5863 10.1223 17.6075C10.2073 17.6286 10.2921 17.6709 10.3346 17.7345L10.6742 18.0518C10.7591 18.1153 10.8652 18.1788 10.9714 18.2211C11.12 18.2423 11.2473 18.2423 11.3959 18.2211L10.6954 16.7611C10.4195 16.8035 10.1436 16.8458 9.86768 16.8458C9.63417 16.8458 9.4219 16.7611 9.23087 16.6554C8.99745 16.5072 8.82765 16.3168 8.72147 16.0629C8.63661 15.8936 8.57291 15.7032 8.57291 15.5339C8.55167 15.3435 8.59414 15.1531 8.65785 14.9838C8.82765 14.603 9.10354 14.3067 9.46437 14.1162L9.29457 13.7989C9.20963 13.6296 9.29458 13.5027 9.37952 13.4391C9.44314 13.2488 9.61294 13.3122 9.71912 13.5027ZM10.3346 15.8301L9.7615 14.6241C9.63417 14.7299 9.52808 14.878 9.46437 15.0261C9.4219 15.0896 9.40067 15.1742 9.40067 15.2589C9.40067 15.3435 9.4219 15.4281 9.46437 15.4916C9.48561 15.5551 9.52808 15.6185 9.5917 15.682C9.65541 15.7244 9.71912 15.7667 9.78274 15.809C9.95254 15.8513 10.1436 15.8513 10.3134 15.809L10.3346 15.8301ZM11.1836 16.5708L11.8417 17.9461C12.0115 17.8191 12.1388 17.6498 12.2237 17.4593C12.2873 17.2901 12.2873 17.0997 12.2237 16.9304C12.2025 16.8458 12.1388 16.7823 12.0752 16.7188C12.0115 16.6554 11.9265 16.6131 11.8417 16.5919C11.6294 16.5495 11.3959 16.5284 11.1836 16.5708Z" fill="#2A2941"/>
</svg>
