<svg width="30" height="25" viewBox="0 0 30 25" fill="none" xmlns="http://www.w3.org/2000/svg">
<path d="M28.4564 10.1619L20.1997 2.92554L18.0346 5.29537L19.5628 6.64953L19.0322 6.35325L13.4924 8.3422L11.5396 10.2677L11.6245 9.42132L11.3486 9.48477C10.0963 9.7176 8.86522 10.1407 7.71901 10.7543L5.00213 12.172L4.72624 13.9917L4.93851 10.7543L1.73339 10.6062L1.01172 21.5454L4.23799 21.7147L4.32294 20.5509L5.40544 20.7625C5.2144 21.3338 5.49038 21.9686 6.0634 22.2014C6.65774 22.4553 7.33694 22.159 7.59168 21.5666L7.74025 21.1857L8.01614 21.2492L7.57045 22.3494C7.31571 22.9631 7.61292 23.6613 8.20717 23.894C8.82275 24.1479 9.52318 23.8517 9.75669 23.2593L10.3934 21.7147L10.818 21.7993L10.3509 22.9419C10.0963 23.5555 10.3934 24.2538 10.9878 24.4865C11.6033 24.7404 12.3038 24.4442 12.5372 23.8517L13.1952 22.2648L13.4924 22.3283L13.1952 23.0265C12.9405 23.6401 13.2376 24.3384 13.832 24.5711C14.4475 24.825 15.148 24.5288 15.3815 23.9363L15.8484 22.7938L16.1243 22.286L18.8836 23.1324C19.4992 23.3228 20.1997 23.0054 20.4119 22.3917C20.6241 21.757 20.2845 21.0588 19.6266 20.8684L17.0158 20.0643L17.037 19.9797L20.6878 21.1011C21.3034 21.2915 22.0038 20.9741 22.2161 20.3605C22.4283 19.7257 22.1312 18.8583 21.4732 18.6678L17.8011 17.5887L17.8648 17.3983L21.4732 18.4562C22.0887 18.6467 22.8528 18.2235 23.0651 17.6099C23.2774 16.9751 22.9378 16.2768 22.2797 16.0864L18.6501 14.965L22.5345 15.9595C23.1712 16.1498 23.8292 15.7902 24.0203 15.1766C24.2112 14.5418 23.8504 13.8859 23.2349 13.6954L19.4992 12.3201L14.681 10.4793L23.5957 12.9337C23.5957 12.9337 24.4235 12.4682 24.6145 11.8546C24.6782 11.6853 24.6995 11.5161 24.7207 11.3468L26.2277 12.6587L28.4564 10.1619Z" fill="#2A2941"/>
<path d="M14.3205 24.9943C14.1083 24.9943 13.896 24.952 13.705 24.8673C13.3229 24.7192 13.047 24.4229 12.8772 24.0844C12.4952 24.8038 11.6036 25.1212 10.8396 24.8038C10.3726 24.6134 10.033 24.2113 9.90563 23.7459C9.73583 23.9574 9.52356 24.1056 9.26882 24.2113C8.8656 24.3806 8.41982 24.3806 8.03775 24.2113C7.63453 24.0421 7.33732 23.7458 7.16752 23.3438C7.06143 23.0899 7.01896 22.8149 7.06143 22.5398C6.67936 22.688 6.27605 22.6667 5.89398 22.5187C5.27849 22.2648 4.89642 21.6511 4.91766 21.0164L4.70539 20.9741L4.64168 22.0743L0.566406 21.8627L1.3517 10.0984L5.40582 10.2888L5.32088 11.4737L7.52836 10.3099C8.6958 9.69632 9.96934 9.25198 11.264 9.01923L12.0919 8.84994L12.0706 9.10384L13.2592 7.94011L18.3534 6.12046L17.4407 5.31639L20.1576 2.33301L29.0511 10.1195L26.313 13.1453L25.0182 12.0026C24.7211 12.6798 23.9569 13.1241 23.8508 13.1876L23.7022 13.2722H23.681C23.9782 13.4203 24.2328 13.6531 24.3814 13.9493C24.5937 14.3301 24.6361 14.7745 24.5088 15.1765C24.339 15.7266 23.9145 16.1075 23.3838 16.2556C23.4051 16.2979 23.4263 16.3191 23.4475 16.3614C23.6386 16.7634 23.681 17.2078 23.5324 17.6098C23.3626 18.1387 22.9169 18.5196 22.4074 18.7101C22.4499 18.7735 22.5136 18.8581 22.5561 18.9428C22.7895 19.3872 22.832 19.9372 22.6834 20.3816C22.4287 21.101 21.6646 21.5453 20.9005 21.4396C20.9853 21.7569 20.9853 22.0955 20.8792 22.4128C20.6033 23.2381 19.6694 23.6824 18.8203 23.4285L16.3794 22.688L16.2733 22.8572L15.8063 23.9786C15.5728 24.6134 14.9573 24.9943 14.3205 24.9943ZM12.9621 21.6935L14.1083 21.905L13.6201 23.0688C13.4503 23.4497 13.6413 23.9151 14.0446 24.0633C14.4267 24.2325 14.8936 24.0421 15.0422 23.6401L15.5304 22.4551L15.9761 21.6511L19.0751 22.6033C19.4996 22.7303 19.9453 22.5187 20.0726 22.1378C20.1363 21.9473 20.1151 21.7358 20.0302 21.5453C19.9453 21.3549 19.7755 21.228 19.5632 21.1645L16.528 20.2335L16.8251 19.3448L20.8792 20.5932C21.3038 20.7202 21.7495 20.5086 21.8768 20.1277C21.9617 19.8949 21.9405 19.5776 21.8132 19.3448C21.7495 19.239 21.6434 19.0486 21.4311 18.9851L17.3558 17.779L17.6742 16.7634L21.6646 17.9483C22.0678 18.0753 22.5985 17.779 22.7259 17.3559C22.7895 17.1655 22.7683 16.9539 22.6834 16.7634C22.5772 16.573 22.4287 16.446 22.2164 16.3825L18.5869 15.2611L18.8203 14.4571L22.7046 15.4516C23.1291 15.5786 23.5536 15.3458 23.681 14.9438C23.7447 14.7533 23.7234 14.5417 23.6173 14.3513C23.5112 14.1608 23.3626 14.0339 23.1716 13.9704H23.1503L19.4147 12.5951L14.5752 10.7543L14.83 9.95021L23.5536 12.3623C23.7871 12.1931 24.148 11.8969 24.2541 11.6007C24.2965 11.4737 24.3178 11.3468 24.339 11.1775L24.4451 10.3946L26.228 11.9603L27.8199 10.2041L20.2 3.53903L18.6081 5.27409L22.9593 9.08269L18.969 6.79754L13.705 8.68074L10.9881 11.3468L11.1367 9.90791C10.0117 10.1407 8.92922 10.5427 7.91043 11.0716L5.38458 12.3835L5.12984 13.9916L4.28084 13.907L4.47188 11.0928L2.0946 10.987L1.43664 21.0798L3.81392 21.2068L3.89878 19.9795L5.93645 20.3604L5.78789 20.8259C5.66056 21.1857 5.85151 21.5877 6.21235 21.7358C6.40338 21.8204 6.59442 21.8204 6.78545 21.7358C6.97649 21.6511 7.10381 21.5242 7.18876 21.3337L7.48588 20.6355L8.61086 20.8471L7.9529 22.4128C7.86795 22.6033 7.86795 22.8149 7.9529 23.0053C8.03775 23.1958 8.18632 23.3438 8.37735 23.4285C8.56839 23.5131 8.78066 23.5131 8.97169 23.4285C9.16273 23.3438 9.31129 23.1958 9.39623 23.0053L10.1815 21.1434L11.4551 21.3973L10.7759 23.0053C10.6061 23.3862 10.7971 23.8517 11.2004 23.9997C11.5825 24.169 12.0494 23.9786 12.198 23.5766L12.9621 21.6935Z" fill="#2A2941"/>
<path d="M24.1478 11.2411L20.4121 9.86577L15.5939 8.02488L11.7309 10.1408L13.3865 7.07275L12.1766 7.13621C10.9243 7.36895 9.69327 7.79214 8.54706 8.40577L5.83018 9.82339L4.55664 18.0754L16.7402 20.4029L17.016 19.8951L19.7754 20.7414C20.3697 20.9318 21.0277 20.6568 21.2824 20.0855C21.5583 19.4296 21.1975 18.689 20.5395 18.4986L17.9288 17.6946L17.95 17.6099L21.6008 18.7313C22.2163 18.9217 22.9167 18.6044 23.129 17.9908C23.3413 17.356 23.0441 16.4885 22.3861 16.298L18.7141 15.219L18.7778 15.0285L22.3861 16.0864C23.0017 16.2769 23.7658 15.8537 23.978 15.2401C24.1903 14.6054 23.8507 13.9071 23.1927 13.7167L19.5631 12.5953L23.4474 13.5897C24.0842 13.7801 24.7421 13.4205 24.9332 12.8069C25.1454 12.1086 24.7846 11.4315 24.1478 11.2411Z" fill="white"/>
<path d="M20.1576 21.1857C19.9878 21.1857 19.818 21.1645 19.6693 21.1011L17.2284 20.3605L16.9737 20.826L4.08984 18.3716L5.46947 9.50595L8.37739 7.9825C9.54483 7.36887 10.8184 6.92453 12.1131 6.69178H12.1768L14.1295 6.60718L12.7923 9.08276L15.5516 7.58046L20.5608 9.4848L24.2966 10.8601C24.6998 10.9871 25.0394 11.2622 25.2304 11.643C25.4427 12.0238 25.4852 12.4682 25.3578 12.8702C25.2304 13.2723 24.9545 13.6108 24.5725 13.8223C24.4664 13.8859 24.3602 13.9282 24.2329 13.9493C24.2541 13.9916 24.2753 14.0128 24.2966 14.0552C24.4876 14.4571 24.53 14.9015 24.3814 15.3035C24.2116 15.8325 23.7659 16.2133 23.2565 16.4038C23.2989 16.4672 23.3626 16.5519 23.4051 16.6365C23.6385 17.0809 23.681 17.631 23.5324 18.0754C23.2777 18.8159 22.5136 19.2391 21.7495 19.1333C21.8556 19.493 21.8344 19.8739 21.6858 20.2124C21.4311 20.826 20.8156 21.1857 20.1576 21.1857ZM16.8251 19.366L19.9241 20.3182C20.3274 20.4451 20.7519 20.2547 20.9005 19.895C20.9854 19.6834 20.9854 19.4718 20.8793 19.2814C20.7943 19.091 20.6245 18.9428 20.4123 18.8794L17.377 17.9484L17.6741 17.0597L21.7283 18.3081C22.1528 18.435 22.5985 18.2234 22.7258 17.8426C22.8108 17.6099 22.7895 17.2924 22.6622 17.0597C22.5985 16.9539 22.4924 16.7635 22.2801 16.7L18.2049 15.4939L18.5232 14.4783L22.5136 15.6632C22.9169 15.7901 23.4475 15.4939 23.5749 15.0708C23.6385 14.8803 23.6173 14.6687 23.5324 14.4783C23.4475 14.2879 23.2777 14.1609 23.0654 14.0975L19.4359 12.9761L19.6693 12.172L23.5537 13.1665C23.7659 13.23 23.9781 13.2088 24.1692 13.1241C24.3602 13.0184 24.4876 12.8702 24.5512 12.6798C24.6149 12.4894 24.5937 12.2778 24.4876 12.0874C24.3814 11.8969 24.2329 11.7699 24.0418 11.7065H24.0206L20.2849 10.3312L15.6365 8.55382L10.691 11.2622L12.6862 7.58046L12.2617 7.60169C11.0518 7.83444 9.88443 8.23639 8.78069 8.80772L6.25485 10.1196L5.06625 17.7579L16.5493 19.9373L16.8251 19.366Z" fill="#2A2941"/>
<path d="M19.8607 4.02588L14.1935 5.42235L11.0521 9.23095C10.0757 10.4582 10.3516 11.9817 12.0922 10.839L15.5731 8.04608L24.1483 11.2622C24.1483 11.2622 25.3156 10.035 25.5067 9.42139C25.825 8.46926 25.5279 7.26315 25.5279 7.26315L19.8607 4.02588Z" fill="white"/>
<path d="M24.2753 11.7488L15.6789 8.51148L12.3465 11.1775C11.1791 11.9604 10.5848 11.6218 10.3513 11.3679C9.88435 10.8602 10.0329 9.84449 10.7333 8.97696L13.9596 5.04146L19.9452 3.5603L25.9309 6.96687L25.9733 7.13616C25.9945 7.19961 26.2917 8.46917 25.9309 9.52714C25.6974 10.2254 24.5936 11.3891 24.4663 11.5372L24.2753 11.7488ZM14.4266 5.78199L11.3702 9.48476C10.8819 10.0984 10.8395 10.6486 10.9456 10.7755C10.9669 10.8178 11.2427 10.8602 11.8371 10.4793L15.4879 7.5382L24.0205 10.7332C24.4451 10.2677 24.9969 9.59059 25.103 9.25201C25.3153 8.61731 25.2092 7.83439 25.1667 7.49589L19.7967 4.42783L14.4266 5.78199Z" fill="#2A2941"/>
<path d="M9.03497 21.503C8.41948 21.2491 8.14351 20.5509 8.39825 19.9584L9.67179 16.8904C9.92644 16.2768 10.6269 16.0017 11.2212 16.2556C11.8368 16.5096 12.1127 17.2078 11.858 17.8002L10.5845 20.8683C10.351 21.4819 9.65055 21.7569 9.03497 21.503Z" fill="white"/>
<path d="M9.50272 22.0322C9.29054 22.0322 9.07827 21.9899 8.88723 21.9053C8.48393 21.736 8.1868 21.4398 8.017 21.0378C7.8472 20.6357 7.8472 20.1914 8.017 19.8105L9.29054 16.7425C9.46034 16.3405 9.75746 16.0442 10.1608 15.875C10.5641 15.7057 11.0098 15.7057 11.3918 15.875C11.7951 16.0442 12.0923 16.3405 12.2621 16.7425C12.4319 17.1445 12.4319 17.5888 12.2621 17.9697L10.9885 21.0378C10.7339 21.6514 10.1183 22.0322 9.50272 22.0322ZM9.20559 21.1224C9.58766 21.2917 10.0546 21.1012 10.2032 20.6992L11.4767 17.6312C11.5616 17.4408 11.5616 17.2292 11.4767 17.0387C11.3918 16.8483 11.2433 16.7002 11.0522 16.6155C10.8612 16.5309 10.6489 16.5309 10.4579 16.6155C10.2669 16.7002 10.1183 16.8483 10.0334 17.0387L8.7599 20.1068C8.67496 20.2972 8.67496 20.5088 8.7599 20.6992C8.84476 20.8896 9.01456 21.0378 9.20559 21.1224Z" fill="#2A2941"/>
<path d="M11.8368 22.0956C11.2212 21.8417 10.9453 21.1434 11.2 20.551L12.4735 17.4829C12.7282 16.8694 13.4287 16.5942 14.023 16.8481C14.6385 17.1021 14.9145 17.8003 14.6597 18.3927L13.3862 21.4608C13.1527 22.0533 12.4523 22.3495 11.8368 22.0956Z" fill="white"/>
<path d="M12.3046 22.6033C12.0923 22.6033 11.88 22.561 11.689 22.4764C11.2858 22.3071 10.9886 22.0109 10.8188 21.6088C10.649 21.2069 10.649 20.7625 10.8188 20.3817L12.0923 17.3136C12.2621 16.9115 12.5592 16.6154 12.9625 16.4461C13.3658 16.2768 13.8116 16.2768 14.1936 16.4461C14.5969 16.6154 14.8941 16.9115 15.0639 17.3136C15.2337 17.7156 15.2337 18.16 15.0639 18.5408L13.7904 21.6088C13.6206 22.0109 13.3234 22.3071 12.9201 22.4764C12.7291 22.561 12.5168 22.6033 12.3046 22.6033ZM13.5781 17.1443C13.4719 17.1443 13.3871 17.1654 13.2809 17.2078C13.0899 17.2924 12.9413 17.4406 12.8564 17.6309L11.5829 20.699C11.498 20.8894 11.498 21.101 11.5829 21.2915C11.6678 21.4819 11.8164 21.63 12.0074 21.7147C12.1984 21.7993 12.4107 21.7993 12.6017 21.7147C12.7927 21.63 12.9413 21.4819 13.0262 21.2915L14.2998 18.2234C14.3846 18.033 14.3846 17.8214 14.2998 17.6309C14.2148 17.4406 14.0663 17.2924 13.8752 17.2078C13.7904 17.1654 13.6842 17.1443 13.5781 17.1443Z" fill="#2A2941"/>
<path d="M14.7235 22.1591C14.1079 21.9051 13.832 21.2069 14.0867 20.6145L14.8296 18.8372C15.0843 18.2235 15.7847 17.9485 16.3791 18.2024C16.9946 18.4563 17.2705 19.1545 17.0158 19.747L16.2729 21.5243C16.0182 22.1167 15.3178 22.413 14.7235 22.1591Z" fill="white"/>
<path d="M15.1701 22.667C14.9578 22.667 14.7455 22.6247 14.5545 22.5401C13.7267 22.2016 13.3447 21.2494 13.6843 20.4242L14.4272 18.6469C14.7668 17.8216 15.7219 17.4408 16.5497 17.7793C16.953 17.9486 17.2501 18.2448 17.4199 18.6469C17.5897 19.0489 17.5897 19.4932 17.4199 19.8741L16.677 21.6515C16.5072 22.0534 16.2101 22.3497 15.8068 22.5189C15.5945 22.6247 15.3823 22.667 15.1701 22.667ZM15.913 18.5199C15.6158 18.5199 15.3186 18.6892 15.1913 18.9854L14.4484 20.7628C14.2786 21.1436 14.4696 21.6091 14.8729 21.7572C15.0639 21.8418 15.2762 21.8418 15.4672 21.7572C15.6582 21.6726 15.8068 21.5245 15.8917 21.334L16.6346 19.5567C16.7195 19.3662 16.7195 19.1546 16.6346 18.9642C16.5497 18.7738 16.4011 18.6257 16.2101 18.5411C16.104 18.5199 16.0191 18.5199 15.913 18.5199Z" fill="#2A2941"/>
<path d="M6.89141 19.8105C6.29707 19.5566 6.0211 18.8795 6.2546 18.287L6.61544 17.4406C6.87018 16.8482 7.54938 16.5731 8.14372 16.8058C8.73797 17.0598 9.01395 17.7369 8.78044 18.3293L8.41961 19.1757C8.16495 19.7681 7.48567 20.0643 6.89141 19.8105Z" fill="white"/>
<path d="M7.33703 20.3183C7.12476 20.3183 6.93373 20.2759 6.72154 20.1913C5.91493 19.8528 5.53286 18.9218 5.85131 18.1178L6.21206 17.2714C6.55174 16.4673 7.4856 16.0865 8.29221 16.4039C8.67428 16.5732 8.99264 16.8694 9.16244 17.2714C9.33224 17.6523 9.33224 18.0966 9.16244 18.4774L8.80161 19.3238C8.63181 19.7047 8.33468 20.0221 7.93138 20.1913C7.74034 20.2759 7.5493 20.3183 7.33703 20.3183ZM7.67663 17.1656C7.3795 17.1656 7.10361 17.3349 6.99744 17.6312L6.6366 18.4774C6.48804 18.8583 6.65784 19.2815 7.03991 19.4508C7.23094 19.5354 7.42198 19.5354 7.61301 19.4508C7.80405 19.3661 7.93138 19.2392 8.01623 19.0488L8.37707 18.2024C8.46201 18.012 8.46201 17.8215 8.37707 17.6312C8.29221 17.4407 8.16488 17.3137 7.97385 17.2291C7.86767 17.1656 7.78281 17.1656 7.67663 17.1656Z" fill="#2A2941"/>
<path d="M5.06612 19.3239L5.76655 8.38471L2.56151 8.23657L1.83984 19.1546L5.06612 19.3239Z" fill="#FFAA5B"/>
<path d="M5.46989 19.7682L1.39453 19.5566L2.15867 7.79224L6.21279 7.98268L5.46989 19.7682ZM2.286 18.7526L4.66328 18.8795L5.32132 8.78675L2.96528 8.68091L2.286 18.7526Z" fill="#2A2941"/>
<path d="M27.1412 10.2252L18.8633 2.96773L21.0495 0.5979L29.3062 7.8343L27.1412 10.2252Z" fill="#FF7A00"/>
<path d="M27.162 10.8179L18.2686 3.01023L21.0066 0.00561523L29.9001 7.79211L27.162 10.8179ZM19.4784 2.94669L27.0984 9.633L28.6903 7.8768L21.0703 1.21172L19.4784 2.94669Z" fill="#2A2941"/>
</svg>
