<svg width="26" height="26" viewBox="0 0 26 26" fill="none" xmlns="http://www.w3.org/2000/svg">
<path d="M3.86583 13.7949L7.98126 8.86475C8.3984 8.32842 8.60697 8.06026 8.71629 7.7595C8.813 7.49336 8.85301 7.20996 8.83377 6.92746C8.812 6.60819 8.68582 6.29277 8.43349 5.66191L7.47093 3.25552C7.0975 2.32191 6.91077 1.85513 6.58867 1.54916C6.30483 1.27954 5.94915 1.09767 5.5644 1.02543C5.12776 0.943448 4.64002 1.06538 3.66452 1.30925L1 1.97548C1 15.5193 10.4803 25 24.0246 25L24.6904 22.3351C24.9343 21.3597 25.0562 20.8718 24.9742 20.4353C24.9019 20.0505 24.7202 19.6949 24.4505 19.411C24.1446 19.0889 23.6777 18.9022 22.7441 18.5287L20.5967 17.6698C19.877 17.3819 19.5172 17.2379 19.1584 17.2269C18.8412 17.2172 18.5263 17.2818 18.2386 17.4157C17.9132 17.5671 17.6392 17.8413 17.091 18.3894L12.9109 22.5037" stroke="black" stroke-width="2" stroke-linecap="round" stroke-linejoin="round"/>
</svg>
